  0
SECTION
  2
HEADER
  9
$ACADVER
  1
AC1009
  9
$FILLMODE
 70
 0
  9
$SPLFRAME
 70
 1
  9
$EXTMIN
 10
0
 20
0
 30
0.0
  9
$EXTMAX
 10
41.6667
 20
41.6667
 30
0.0
  0
ENDSEC
  0
SECTION
  2
TABLES
  0
TABLE
  2
LAYER
 70
1
  0
LAYER
  2
0
 70
     0
 62
     7
  6
CONTINUOUS
  0
ENDTAB
  0
ENDSEC
  0
SECTION
  2
ENTITIES
  0
POLYLINE
  8
0
 62
     0
 66
     1
 10
0
 20
0
 30
0.0
 70
     1
 40
7.2
 41
7.2
  0
VERTEX
  8
0
 10
28.1
 20
185
 30
0.0
 40
0.1
 41
0.1
  0
VERTEX
  8
0
 10
28.1
 20
184.936
 30
0.0
 40
0.1
 41
0.1
  0
VERTEX
  8
0
 10
28.0871
 20
184.744
 30
0.0
 40
0.1
 41
0.1
  0
VERTEX
  8
0
 10
28.0492
 20
184.496
 30
0.0
 40
0.1
 41
0.1
  0
VERTEX
  8
0
 10
27.9876
 20
184.257
 30
0.0
 40
0.1
 41
0.1
  0
VERTEX
  8
0
 10
27.9035
 20
184.026
 30
0.0
 40
0.1
 41
0.1
  0
VERTEX
  8
0
 10
27.7982
 20
183.808
 30
0.0
 40
0.1
 41
0.1
  0
VERTEX
  8
0
 10
27.6731
 20
183.603
 30
0.0
 40
0.1
 41
0.1
  0
VERTEX
  8
0
 10
27.529
 20
183.41
 30
0.0
 40
0.1
 41
0.1
  0
VERTEX
  8
0
 10
27.3678
 20
183.232
 30
0.0
 40
0.1
 41
0.1
  0
VERTEX
  8
0
 10
27.1903
 20
183.071
 30
0.0
 40
0.1
 41
0.1
  0
VERTEX
  8
0
 10
26.9978
 20
182.926
 30
0.0
 40
0.1
 41
0.1
  0
VERTEX
  8
0
 10
26.7917
 20
182.801
 30
0.0
 40
0.1
 41
0.1
  0
VERTEX
  8
0
 10
26.5731
 20
182.696
 30
0.0
 40
0.1
 41
0.1
  0
VERTEX
  8
0
 10
26.3433
 20
182.612
 30
0.0
 40
0.1
 41
0.1
  0
VERTEX
  8
0
 10
26.1037
 20
182.551
 30
0.0
 40
0.1
 41
0.1
  0
VERTEX
  8
0
 10
25.8556
 20
182.513
 30
0.0
 40
0.1
 41
0.1
  0
VERTEX
  8
0
 10
25.6639
 20
182.5
 30
0.0
 40
0.1
 41
0.1
  0
VERTEX
  8
0
 10
25.6
 20
182.5
 30
0.0
 40
0.1
 41
0.1
  0
VERTEX
  8
0
 10
25.5361
 20
182.5
 30
0.0
 40
0.1
 41
0.1
  0
VERTEX
  8
0
 10
25.3443
 20
182.513
 30
0.0
 40
0.1
 41
0.1
  0
VERTEX
  8
0
 10
25.0961
 20
182.551
 30
0.0
 40
0.1
 41
0.1
  0
VERTEX
  8
0
 10
24.8565
 20
182.612
 30
0.0
 40
0.1
 41
0.1
  0
VERTEX
  8
0
 10
24.6268
 20
182.696
 30
0.0
 40
0.1
 41
0.1
  0
VERTEX
  8
0
 10
24.4083
 20
182.801
 30
0.0
 40
0.1
 41
0.1
  0
VERTEX
  8
0
 10
24.2022
 20
182.926
 30
0.0
 40
0.1
 41
0.1
  0
VERTEX
  8
0
 10
24.0097
 20
183.071
 30
0.0
 40
0.1
 41
0.1
  0
VERTEX
  8
0
 10
23.8322
 20
183.232
 30
0.0
 40
0.1
 41
0.1
  0
VERTEX
  8
0
 10
23.6708
 20
183.41
 30
0.0
 40
0.1
 41
0.1
  0
VERTEX
  8
0
 10
23.5269
 20
183.603
 30
0.0
 40
0.1
 41
0.1
  0
VERTEX
  8
0
 10
23.4017
 20
183.808
 30
0.0
 40
0.1
 41
0.1
  0
VERTEX
  8
0
 10
23.2964
 20
184.026
 30
0.0
 40
0.1
 41
0.1
  0
VERTEX
  8
0
 10
23.2124
 20
184.257
 30
0.0
 40
0.1
 41
0.1
  0
VERTEX
  8
0
 10
23.1508
 20
184.496
 30
0.0
 40
0.1
 41
0.1
  0
VERTEX
  8
0
 10
23.1129
 20
184.744
 30
0.0
 40
0.1
 41
0.1
  0
VERTEX
  8
0
 10
23.1
 20
184.936
 30
0.0
 40
0.1
 41
0.1
  0
VERTEX
  8
0
 10
23.1
 20
185
 30
0.0
 40
0.1
 41
0.1
  0
VERTEX
  8
0
 10
23.1
 20
185.064
 30
0.0
 40
0.1
 41
0.1
  0
VERTEX
  8
0
 10
23.1129
 20
185.256
 30
0.0
 40
0.1
 41
0.1
  0
VERTEX
  8
0
 10
23.1508
 20
185.504
 30
0.0
 40
0.1
 41
0.1
  0
VERTEX
  8
0
 10
23.2124
 20
185.743
 30
0.0
 40
0.1
 41
0.1
  0
VERTEX
  8
0
 10
23.2964
 20
185.974
 30
0.0
 40
0.1
 41
0.1
  0
VERTEX
  8
0
 10
23.4017
 20
186.192
 30
0.0
 40
0.1
 41
0.1
  0
VERTEX
  8
0
 10
23.5269
 20
186.397
 30
0.0
 40
0.1
 41
0.1
  0
VERTEX
  8
0
 10
23.6708
 20
186.59
 30
0.0
 40
0.1
 41
0.1
  0
VERTEX
  8
0
 10
23.8322
 20
186.768
 30
0.0
 40
0.1
 41
0.1
  0
VERTEX
  8
0
 10
24.0097
 20
186.929
 30
0.0
 40
0.1
 41
0.1
  0
VERTEX
  8
0
 10
24.2022
 20
187.074
 30
0.0
 40
0.1
 41
0.1
  0
VERTEX
  8
0
 10
24.4083
 20
187.199
 30
0.0
 40
0.1
 41
0.1
  0
VERTEX
  8
0
 10
24.6268
 20
187.304
 30
0.0
 40
0.1
 41
0.1
  0
VERTEX
  8
0
 10
24.8565
 20
187.388
 30
0.0
 40
0.1
 41
0.1
  0
VERTEX
  8
0
 10
25.0961
 20
187.449
 30
0.0
 40
0.1
 41
0.1
  0
VERTEX
  8
0
 10
25.3443
 20
187.487
 30
0.0
 40
0.1
 41
0.1
  0
VERTEX
  8
0
 10
25.5361
 20
187.5
 30
0.0
 40
0.1
 41
0.1
  0
VERTEX
  8
0
 10
25.6
 20
187.5
 30
0.0
 40
0.1
 41
0.1
  0
VERTEX
  8
0
 10
25.6639
 20
187.5
 30
0.0
 40
0.1
 41
0.1
  0
VERTEX
  8
0
 10
25.8556
 20
187.487
 30
0.0
 40
0.1
 41
0.1
  0
VERTEX
  8
0
 10
26.1037
 20
187.449
 30
0.0
 40
0.1
 41
0.1
  0
VERTEX
  8
0
 10
26.3433
 20
187.388
 30
0.0
 40
0.1
 41
0.1
  0
VERTEX
  8
0
 10
26.5731
 20
187.304
 30
0.0
 40
0.1
 41
0.1
  0
VERTEX
  8
0
 10
26.7917
 20
187.199
 30
0.0
 40
0.1
 41
0.1
  0
VERTEX
  8
0
 10
26.9978
 20
187.074
 30
0.0
 40
0.1
 41
0.1
  0
VERTEX
  8
0
 10
27.1903
 20
186.929
 30
0.0
 40
0.1
 41
0.1
  0
VERTEX
  8
0
 10
27.3678
 20
186.768
 30
0.0
 40
0.1
 41
0.1
  0
VERTEX
  8
0
 10
27.529
 20
186.59
 30
0.0
 40
0.1
 41
0.1
  0
VERTEX
  8
0
 10
27.6731
 20
186.397
 30
0.0
 40
0.1
 41
0.1
  0
VERTEX
  8
0
 10
27.7982
 20
186.192
 30
0.0
 40
0.1
 41
0.1
  0
VERTEX
  8
0
 10
27.9035
 20
185.974
 30
0.0
 40
0.1
 41
0.1
  0
VERTEX
  8
0
 10
27.9876
 20
185.743
 30
0.0
 40
0.1
 41
0.1
  0
VERTEX
  8
0
 10
28.0492
 20
185.504
 30
0.0
 40
0.1
 41
0.1
  0
VERTEX
  8
0
 10
28.0871
 20
185.256
 30
0.0
 40
0.1
 41
0.1
  0
VERTEX
  8
0
 10
28.1
 20
185.064
 30
0.0
 40
0.1
 41
0.1
  0
VERTEX
  8
0
 10
28.1
 20
185
 30
0.0
 40
0.1
 41
0.1
  0
SEQEND
 8
0
  0
POLYLINE
  8
0
 62
     0
 66
     1
 10
0
 20
0
 30
0.0
 70
     1
 40
7.2
 41
7.2
  0
VERTEX
  8
0
 10
28.1
 20
55
 30
0.0
 40
0.1
 41
0.1
  0
VERTEX
  8
0
 10
28.1
 20
54.9361
 30
0.0
 40
0.1
 41
0.1
  0
VERTEX
  8
0
 10
28.0871
 20
54.7444
 30
0.0
 40
0.1
 41
0.1
  0
VERTEX
  8
0
 10
28.0492
 20
54.4963
 30
0.0
 40
0.1
 41
0.1
  0
VERTEX
  8
0
 10
27.9876
 20
54.2567
 30
0.0
 40
0.1
 41
0.1
  0
VERTEX
  8
0
 10
27.9035
 20
54.0269
 30
0.0
 40
0.1
 41
0.1
  0
VERTEX
  8
0
 10
27.7982
 20
53.8083
 30
0.0
 40
0.1
 41
0.1
  0
VERTEX
  8
0
 10
27.6731
 20
53.6022
 30
0.0
 40
0.1
 41
0.1
  0
VERTEX
  8
0
 10
27.529
 20
53.4097
 30
0.0
 40
0.1
 41
0.1
  0
VERTEX
  8
0
 10
27.3678
 20
53.2322
 30
0.0
 40
0.1
 41
0.1
  0
VERTEX
  8
0
 10
27.1903
 20
53.071
 30
0.0
 40
0.1
 41
0.1
  0
VERTEX
  8
0
 10
26.9978
 20
52.9269
 30
0.0
 40
0.1
 41
0.1
  0
VERTEX
  8
0
 10
26.7917
 20
52.8018
 30
0.0
 40
0.1
 41
0.1
  0
VERTEX
  8
0
 10
26.5731
 20
52.6965
 30
0.0
 40
0.1
 41
0.1
  0
VERTEX
  8
0
 10
26.3433
 20
52.6124
 30
0.0
 40
0.1
 41
0.1
  0
VERTEX
  8
0
 10
26.1037
 20
52.5508
 30
0.0
 40
0.1
 41
0.1
  0
VERTEX
  8
0
 10
25.8556
 20
52.5129
 30
0.0
 40
0.1
 41
0.1
  0
VERTEX
  8
0
 10
25.6639
 20
52.5
 30
0.0
 40
0.1
 41
0.1
  0
VERTEX
  8
0
 10
25.6
 20
52.5
 30
0.0
 40
0.1
 41
0.1
  0
VERTEX
  8
0
 10
25.5361
 20
52.5
 30
0.0
 40
0.1
 41
0.1
  0
VERTEX
  8
0
 10
25.3443
 20
52.5129
 30
0.0
 40
0.1
 41
0.1
  0
VERTEX
  8
0
 10
25.0961
 20
52.5508
 30
0.0
 40
0.1
 41
0.1
  0
VERTEX
  8
0
 10
24.8565
 20
52.6124
 30
0.0
 40
0.1
 41
0.1
  0
VERTEX
  8
0
 10
24.6268
 20
52.6965
 30
0.0
 40
0.1
 41
0.1
  0
VERTEX
  8
0
 10
24.4083
 20
52.8018
 30
0.0
 40
0.1
 41
0.1
  0
VERTEX
  8
0
 10
24.2022
 20
52.9269
 30
0.0
 40
0.1
 41
0.1
  0
VERTEX
  8
0
 10
24.0097
 20
53.071
 30
0.0
 40
0.1
 41
0.1
  0
VERTEX
  8
0
 10
23.8322
 20
53.2322
 30
0.0
 40
0.1
 41
0.1
  0
VERTEX
  8
0
 10
23.6708
 20
53.4097
 30
0.0
 40
0.1
 41
0.1
  0
VERTEX
  8
0
 10
23.5269
 20
53.6022
 30
0.0
 40
0.1
 41
0.1
  0
VERTEX
  8
0
 10
23.4017
 20
53.8083
 30
0.0
 40
0.1
 41
0.1
  0
VERTEX
  8
0
 10
23.2964
 20
54.0269
 30
0.0
 40
0.1
 41
0.1
  0
VERTEX
  8
0
 10
23.2124
 20
54.2567
 30
0.0
 40
0.1
 41
0.1
  0
VERTEX
  8
0
 10
23.1508
 20
54.4963
 30
0.0
 40
0.1
 41
0.1
  0
VERTEX
  8
0
 10
23.1129
 20
54.7444
 30
0.0
 40
0.1
 41
0.1
  0
VERTEX
  8
0
 10
23.1
 20
54.9361
 30
0.0
 40
0.1
 41
0.1
  0
VERTEX
  8
0
 10
23.1
 20
55
 30
0.0
 40
0.1
 41
0.1
  0
VERTEX
  8
0
 10
23.1
 20
55.0639
 30
0.0
 40
0.1
 41
0.1
  0
VERTEX
  8
0
 10
23.1129
 20
55.2557
 30
0.0
 40
0.1
 41
0.1
  0
VERTEX
  8
0
 10
23.1508
 20
55.5039
 30
0.0
 40
0.1
 41
0.1
  0
VERTEX
  8
0
 10
23.2124
 20
55.7435
 30
0.0
 40
0.1
 41
0.1
  0
VERTEX
  8
0
 10
23.2964
 20
55.9732
 30
0.0
 40
0.1
 41
0.1
  0
VERTEX
  8
0
 10
23.4017
 20
56.1917
 30
0.0
 40
0.1
 41
0.1
  0
VERTEX
  8
0
 10
23.5269
 20
56.3978
 30
0.0
 40
0.1
 41
0.1
  0
VERTEX
  8
0
 10
23.6708
 20
56.5903
 30
0.0
 40
0.1
 41
0.1
  0
VERTEX
  8
0
 10
23.8322
 20
56.7678
 30
0.0
 40
0.1
 41
0.1
  0
VERTEX
  8
0
 10
24.0097
 20
56.9292
 30
0.0
 40
0.1
 41
0.1
  0
VERTEX
  8
0
 10
24.2022
 20
57.0731
 30
0.0
 40
0.1
 41
0.1
  0
VERTEX
  8
0
 10
24.4083
 20
57.1983
 30
0.0
 40
0.1
 41
0.1
  0
VERTEX
  8
0
 10
24.6268
 20
57.3036
 30
0.0
 40
0.1
 41
0.1
  0
VERTEX
  8
0
 10
24.8565
 20
57.3876
 30
0.0
 40
0.1
 41
0.1
  0
VERTEX
  8
0
 10
25.0961
 20
57.4492
 30
0.0
 40
0.1
 41
0.1
  0
VERTEX
  8
0
 10
25.3443
 20
57.4871
 30
0.0
 40
0.1
 41
0.1
  0
VERTEX
  8
0
 10
25.5361
 20
57.5
 30
0.0
 40
0.1
 41
0.1
  0
VERTEX
  8
0
 10
25.6
 20
57.5
 30
0.0
 40
0.1
 41
0.1
  0
VERTEX
  8
0
 10
25.6639
 20
57.5
 30
0.0
 40
0.1
 41
0.1
  0
VERTEX
  8
0
 10
25.8556
 20
57.4871
 30
0.0
 40
0.1
 41
0.1
  0
VERTEX
  8
0
 10
26.1037
 20
57.4492
 30
0.0
 40
0.1
 41
0.1
  0
VERTEX
  8
0
 10
26.3433
 20
57.3876
 30
0.0
 40
0.1
 41
0.1
  0
VERTEX
  8
0
 10
26.5731
 20
57.3036
 30
0.0
 40
0.1
 41
0.1
  0
VERTEX
  8
0
 10
26.7917
 20
57.1983
 30
0.0
 40
0.1
 41
0.1
  0
VERTEX
  8
0
 10
26.9978
 20
57.0731
 30
0.0
 40
0.1
 41
0.1
  0
VERTEX
  8
0
 10
27.1903
 20
56.9292
 30
0.0
 40
0.1
 41
0.1
  0
VERTEX
  8
0
 10
27.3678
 20
56.7678
 30
0.0
 40
0.1
 41
0.1
  0
VERTEX
  8
0
 10
27.529
 20
56.5903
 30
0.0
 40
0.1
 41
0.1
  0
VERTEX
  8
0
 10
27.6731
 20
56.3978
 30
0.0
 40
0.1
 41
0.1
  0
VERTEX
  8
0
 10
27.7982
 20
56.1917
 30
0.0
 40
0.1
 41
0.1
  0
VERTEX
  8
0
 10
27.9035
 20
55.9732
 30
0.0
 40
0.1
 41
0.1
  0
VERTEX
  8
0
 10
27.9876
 20
55.7435
 30
0.0
 40
0.1
 41
0.1
  0
VERTEX
  8
0
 10
28.0492
 20
55.5039
 30
0.0
 40
0.1
 41
0.1
  0
VERTEX
  8
0
 10
28.0871
 20
55.2557
 30
0.0
 40
0.1
 41
0.1
  0
VERTEX
  8
0
 10
28.1
 20
55.0639
 30
0.0
 40
0.1
 41
0.1
  0
VERTEX
  8
0
 10
28.1
 20
55
 30
0.0
 40
0.1
 41
0.1
  0
SEQEND
 8
0
  0
POLYLINE
  8
0
 62
     0
 66
     1
 10
0
 20
0
 30
0.0
 40
7.2
 41
7.2
  0
VERTEX
  8
0
 10
57
 20
220
 30
0.0
 40
0.1
 41
0.1
  0
VERTEX
  8
0
 10
57
 20
20
 30
0.0
 40
0.1
 41
0.1
  0
SEQEND
 8
0
  0
POLYLINE
  8
0
 62
     0
 66
     1
 10
0
 20
0
 30
0.0
 70
     1
 40
7.2
 41
7.2
  0
VERTEX
  8
0
 10
74
 20
65
 30
0.0
 40
0.1
 41
0.1
  0
VERTEX
  8
0
 10
74
 20
45
 30
0.0
 40
0.1
 41
0.1
  0
VERTEX
  8
0
 10
74
 20
44.9361
 30
0.0
 40
0.1
 41
0.1
  0
VERTEX
  8
0
 10
73.9871
 20
44.7444
 30
0.0
 40
0.1
 41
0.1
  0
VERTEX
  8
0
 10
73.9492
 20
44.4963
 30
0.0
 40
0.1
 41
0.1
  0
VERTEX
  8
0
 10
73.8876
 20
44.2567
 30
0.0
 40
0.1
 41
0.1
  0
VERTEX
  8
0
 10
73.8035
 20
44.0269
 30
0.0
 40
0.1
 41
0.1
  0
VERTEX
  8
0
 10
73.6982
 20
43.8083
 30
0.0
 40
0.1
 41
0.1
  0
VERTEX
  8
0
 10
73.5731
 20
43.6022
 30
0.0
 40
0.1
 41
0.1
  0
VERTEX
  8
0
 10
73.429
 20
43.4097
 30
0.0
 40
0.1
 41
0.1
  0
VERTEX
  8
0
 10
73.2678
 20
43.2322
 30
0.0
 40
0.1
 41
0.1
  0
VERTEX
  8
0
 10
73.0903
 20
43.071
 30
0.0
 40
0.1
 41
0.1
  0
VERTEX
  8
0
 10
72.8978
 20
42.9269
 30
0.0
 40
0.1
 41
0.1
  0
VERTEX
  8
0
 10
72.6917
 20
42.8018
 30
0.0
 40
0.1
 41
0.1
  0
VERTEX
  8
0
 10
72.4731
 20
42.6965
 30
0.0
 40
0.1
 41
0.1
  0
VERTEX
  8
0
 10
72.2433
 20
42.6124
 30
0.0
 40
0.1
 41
0.1
  0
VERTEX
  8
0
 10
72.0038
 20
42.5508
 30
0.0
 40
0.1
 41
0.1
  0
VERTEX
  8
0
 10
71.7556
 20
42.5129
 30
0.0
 40
0.1
 41
0.1
  0
VERTEX
  8
0
 10
71.5639
 20
42.5
 30
0.0
 40
0.1
 41
0.1
  0
VERTEX
  8
0
 10
71.5
 20
42.5
 30
0.0
 40
0.1
 41
0.1
  0
VERTEX
  8
0
 10
52
 20
42.5
 30
0.0
 40
0.1
 41
0.1
  0
VERTEX
  8
0
 10
51.9361
 20
42.5
 30
0.0
 40
0.1
 41
0.1
  0
VERTEX
  8
0
 10
51.7443
 20
42.5129
 30
0.0
 40
0.1
 41
0.1
  0
VERTEX
  8
0
 10
51.4961
 20
42.5508
 30
0.0
 40
0.1
 41
0.1
  0
VERTEX
  8
0
 10
51.2565
 20
42.6124
 30
0.0
 40
0.1
 41
0.1
  0
VERTEX
  8
0
 10
51.0268
 20
42.6965
 30
0.0
 40
0.1
 41
0.1
  0
VERTEX
  8
0
 10
50.8083
 20
42.8018
 30
0.0
 40
0.1
 41
0.1
  0
VERTEX
  8
0
 10
50.6022
 20
42.9269
 30
0.0
 40
0.1
 41
0.1
  0
VERTEX
  8
0
 10
50.4097
 20
43.071
 30
0.0
 40
0.1
 41
0.1
  0
VERTEX
  8
0
 10
50.2322
 20
43.2322
 30
0.0
 40
0.1
 41
0.1
  0
VERTEX
  8
0
 10
50.0708
 20
43.4097
 30
0.0
 40
0.1
 41
0.1
  0
VERTEX
  8
0
 10
49.9269
 20
43.6022
 30
0.0
 40
0.1
 41
0.1
  0
VERTEX
  8
0
 10
49.8017
 20
43.8083
 30
0.0
 40
0.1
 41
0.1
  0
VERTEX
  8
0
 10
49.6964
 20
44.0269
 30
0.0
 40
0.1
 41
0.1
  0
VERTEX
  8
0
 10
49.6124
 20
44.2567
 30
0.0
 40
0.1
 41
0.1
  0
VERTEX
  8
0
 10
49.5508
 20
44.4963
 30
0.0
 40
0.1
 41
0.1
  0
VERTEX
  8
0
 10
49.5129
 20
44.7444
 30
0.0
 40
0.1
 41
0.1
  0
VERTEX
  8
0
 10
49.5
 20
44.9361
 30
0.0
 40
0.1
 41
0.1
  0
VERTEX
  8
0
 10
49.5
 20
45
 30
0.0
 40
0.1
 41
0.1
  0
VERTEX
  8
0
 10
49.5
 20
65
 30
0.0
 40
0.1
 41
0.1
  0
VERTEX
  8
0
 10
49.5
 20
65.0639
 30
0.0
 40
0.1
 41
0.1
  0
VERTEX
  8
0
 10
49.5129
 20
65.2557
 30
0.0
 40
0.1
 41
0.1
  0
VERTEX
  8
0
 10
49.5508
 20
65.5039
 30
0.0
 40
0.1
 41
0.1
  0
VERTEX
  8
0
 10
49.6124
 20
65.7435
 30
0.0
 40
0.1
 41
0.1
  0
VERTEX
  8
0
 10
49.6964
 20
65.9732
 30
0.0
 40
0.1
 41
0.1
  0
VERTEX
  8
0
 10
49.8017
 20
66.1917
 30
0.0
 40
0.1
 41
0.1
  0
VERTEX
  8
0
 10
49.9269
 20
66.3978
 30
0.0
 40
0.1
 41
0.1
  0
VERTEX
  8
0
 10
50.0708
 20
66.5903
 30
0.0
 40
0.1
 41
0.1
  0
VERTEX
  8
0
 10
50.2322
 20
66.7678
 30
0.0
 40
0.1
 41
0.1
  0
VERTEX
  8
0
 10
50.4097
 20
66.9292
 30
0.0
 40
0.1
 41
0.1
  0
VERTEX
  8
0
 10
50.6022
 20
67.0731
 30
0.0
 40
0.1
 41
0.1
  0
VERTEX
  8
0
 10
50.8083
 20
67.1983
 30
0.0
 40
0.1
 41
0.1
  0
VERTEX
  8
0
 10
51.0268
 20
67.3036
 30
0.0
 40
0.1
 41
0.1
  0
VERTEX
  8
0
 10
51.2565
 20
67.3876
 30
0.0
 40
0.1
 41
0.1
  0
VERTEX
  8
0
 10
51.4961
 20
67.4492
 30
0.0
 40
0.1
 41
0.1
  0
VERTEX
  8
0
 10
51.7443
 20
67.4871
 30
0.0
 40
0.1
 41
0.1
  0
VERTEX
  8
0
 10
51.9361
 20
67.5
 30
0.0
 40
0.1
 41
0.1
  0
VERTEX
  8
0
 10
52
 20
67.5
 30
0.0
 40
0.1
 41
0.1
  0
VERTEX
  8
0
 10
71.5
 20
67.5
 30
0.0
 40
0.1
 41
0.1
  0
VERTEX
  8
0
 10
71.5639
 20
67.5
 30
0.0
 40
0.1
 41
0.1
  0
VERTEX
  8
0
 10
71.7556
 20
67.4871
 30
0.0
 40
0.1
 41
0.1
  0
VERTEX
  8
0
 10
72.0038
 20
67.4492
 30
0.0
 40
0.1
 41
0.1
  0
VERTEX
  8
0
 10
72.2433
 20
67.3876
 30
0.0
 40
0.1
 41
0.1
  0
VERTEX
  8
0
 10
72.4731
 20
67.3036
 30
0.0
 40
0.1
 41
0.1
  0
VERTEX
  8
0
 10
72.6917
 20
67.1983
 30
0.0
 40
0.1
 41
0.1
  0
VERTEX
  8
0
 10
72.8978
 20
67.0731
 30
0.0
 40
0.1
 41
0.1
  0
VERTEX
  8
0
 10
73.0903
 20
66.9292
 30
0.0
 40
0.1
 41
0.1
  0
VERTEX
  8
0
 10
73.2678
 20
66.7678
 30
0.0
 40
0.1
 41
0.1
  0
VERTEX
  8
0
 10
73.429
 20
66.5903
 30
0.0
 40
0.1
 41
0.1
  0
VERTEX
  8
0
 10
73.5731
 20
66.3978
 30
0.0
 40
0.1
 41
0.1
  0
VERTEX
  8
0
 10
73.6982
 20
66.1917
 30
0.0
 40
0.1
 41
0.1
  0
VERTEX
  8
0
 10
73.8035
 20
65.9732
 30
0.0
 40
0.1
 41
0.1
  0
VERTEX
  8
0
 10
73.8876
 20
65.7435
 30
0.0
 40
0.1
 41
0.1
  0
VERTEX
  8
0
 10
73.9492
 20
65.5039
 30
0.0
 40
0.1
 41
0.1
  0
VERTEX
  8
0
 10
73.9871
 20
65.2557
 30
0.0
 40
0.1
 41
0.1
  0
VERTEX
  8
0
 10
74
 20
65.0639
 30
0.0
 40
0.1
 41
0.1
  0
VERTEX
  8
0
 10
74
 20
65
 30
0.0
 40
0.1
 41
0.1
  0
SEQEND
 8
0
  0
POLYLINE
  8
0
 62
     0
 66
     1
 10
0
 20
0
 30
0.0
 70
     1
 40
7.2
 41
7.2
  0
VERTEX
  8
0
 10
74
 20
195
 30
0.0
 40
0.1
 41
0.1
  0
VERTEX
  8
0
 10
74
 20
175
 30
0.0
 40
0.1
 41
0.1
  0
VERTEX
  8
0
 10
74
 20
174.936
 30
0.0
 40
0.1
 41
0.1
  0
VERTEX
  8
0
 10
73.9871
 20
174.744
 30
0.0
 40
0.1
 41
0.1
  0
VERTEX
  8
0
 10
73.9492
 20
174.496
 30
0.0
 40
0.1
 41
0.1
  0
VERTEX
  8
0
 10
73.8876
 20
174.257
 30
0.0
 40
0.1
 41
0.1
  0
VERTEX
  8
0
 10
73.8035
 20
174.026
 30
0.0
 40
0.1
 41
0.1
  0
VERTEX
  8
0
 10
73.6982
 20
173.808
 30
0.0
 40
0.1
 41
0.1
  0
VERTEX
  8
0
 10
73.5731
 20
173.603
 30
0.0
 40
0.1
 41
0.1
  0
VERTEX
  8
0
 10
73.429
 20
173.41
 30
0.0
 40
0.1
 41
0.1
  0
VERTEX
  8
0
 10
73.2678
 20
173.232
 30
0.0
 40
0.1
 41
0.1
  0
VERTEX
  8
0
 10
73.0903
 20
173.071
 30
0.0
 40
0.1
 41
0.1
  0
VERTEX
  8
0
 10
72.8978
 20
172.926
 30
0.0
 40
0.1
 41
0.1
  0
VERTEX
  8
0
 10
72.6917
 20
172.801
 30
0.0
 40
0.1
 41
0.1
  0
VERTEX
  8
0
 10
72.4731
 20
172.696
 30
0.0
 40
0.1
 41
0.1
  0
VERTEX
  8
0
 10
72.2433
 20
172.612
 30
0.0
 40
0.1
 41
0.1
  0
VERTEX
  8
0
 10
72.0038
 20
172.551
 30
0.0
 40
0.1
 41
0.1
  0
VERTEX
  8
0
 10
71.7556
 20
172.513
 30
0.0
 40
0.1
 41
0.1
  0
VERTEX
  8
0
 10
71.5639
 20
172.5
 30
0.0
 40
0.1
 41
0.1
  0
VERTEX
  8
0
 10
71.5
 20
172.5
 30
0.0
 40
0.1
 41
0.1
  0
VERTEX
  8
0
 10
52
 20
172.5
 30
0.0
 40
0.1
 41
0.1
  0
VERTEX
  8
0
 10
51.9361
 20
172.5
 30
0.0
 40
0.1
 41
0.1
  0
VERTEX
  8
0
 10
51.7443
 20
172.513
 30
0.0
 40
0.1
 41
0.1
  0
VERTEX
  8
0
 10
51.4961
 20
172.551
 30
0.0
 40
0.1
 41
0.1
  0
VERTEX
  8
0
 10
51.2565
 20
172.612
 30
0.0
 40
0.1
 41
0.1
  0
VERTEX
  8
0
 10
51.0268
 20
172.696
 30
0.0
 40
0.1
 41
0.1
  0
VERTEX
  8
0
 10
50.8083
 20
172.801
 30
0.0
 40
0.1
 41
0.1
  0
VERTEX
  8
0
 10
50.6022
 20
172.926
 30
0.0
 40
0.1
 41
0.1
  0
VERTEX
  8
0
 10
50.4097
 20
173.071
 30
0.0
 40
0.1
 41
0.1
  0
VERTEX
  8
0
 10
50.2322
 20
173.232
 30
0.0
 40
0.1
 41
0.1
  0
VERTEX
  8
0
 10
50.0708
 20
173.41
 30
0.0
 40
0.1
 41
0.1
  0
VERTEX
  8
0
 10
49.9269
 20
173.603
 30
0.0
 40
0.1
 41
0.1
  0
VERTEX
  8
0
 10
49.8017
 20
173.808
 30
0.0
 40
0.1
 41
0.1
  0
VERTEX
  8
0
 10
49.6964
 20
174.026
 30
0.0
 40
0.1
 41
0.1
  0
VERTEX
  8
0
 10
49.6124
 20
174.257
 30
0.0
 40
0.1
 41
0.1
  0
VERTEX
  8
0
 10
49.5508
 20
174.496
 30
0.0
 40
0.1
 41
0.1
  0
VERTEX
  8
0
 10
49.5129
 20
174.744
 30
0.0
 40
0.1
 41
0.1
  0
VERTEX
  8
0
 10
49.5
 20
174.936
 30
0.0
 40
0.1
 41
0.1
  0
VERTEX
  8
0
 10
49.5
 20
175
 30
0.0
 40
0.1
 41
0.1
  0
VERTEX
  8
0
 10
49.5
 20
195
 30
0.0
 40
0.1
 41
0.1
  0
VERTEX
  8
0
 10
49.5
 20
195.064
 30
0.0
 40
0.1
 41
0.1
  0
VERTEX
  8
0
 10
49.5129
 20
195.256
 30
0.0
 40
0.1
 41
0.1
  0
VERTEX
  8
0
 10
49.5508
 20
195.504
 30
0.0
 40
0.1
 41
0.1
  0
VERTEX
  8
0
 10
49.6124
 20
195.743
 30
0.0
 40
0.1
 41
0.1
  0
VERTEX
  8
0
 10
49.6964
 20
195.974
 30
0.0
 40
0.1
 41
0.1
  0
VERTEX
  8
0
 10
49.8017
 20
196.192
 30
0.0
 40
0.1
 41
0.1
  0
VERTEX
  8
0
 10
49.9269
 20
196.397
 30
0.0
 40
0.1
 41
0.1
  0
VERTEX
  8
0
 10
50.0708
 20
196.59
 30
0.0
 40
0.1
 41
0.1
  0
VERTEX
  8
0
 10
50.2322
 20
196.768
 30
0.0
 40
0.1
 41
0.1
  0
VERTEX
  8
0
 10
50.4097
 20
196.929
 30
0.0
 40
0.1
 41
0.1
  0
VERTEX
  8
0
 10
50.6022
 20
197.074
 30
0.0
 40
0.1
 41
0.1
  0
VERTEX
  8
0
 10
50.8083
 20
197.199
 30
0.0
 40
0.1
 41
0.1
  0
VERTEX
  8
0
 10
51.0268
 20
197.304
 30
0.0
 40
0.1
 41
0.1
  0
VERTEX
  8
0
 10
51.2565
 20
197.388
 30
0.0
 40
0.1
 41
0.1
  0
VERTEX
  8
0
 10
51.4961
 20
197.449
 30
0.0
 40
0.1
 41
0.1
  0
VERTEX
  8
0
 10
51.7443
 20
197.487
 30
0.0
 40
0.1
 41
0.1
  0
VERTEX
  8
0
 10
51.9361
 20
197.5
 30
0.0
 40
0.1
 41
0.1
  0
VERTEX
  8
0
 10
52
 20
197.5
 30
0.0
 40
0.1
 41
0.1
  0
VERTEX
  8
0
 10
71.5
 20
197.5
 30
0.0
 40
0.1
 41
0.1
  0
VERTEX
  8
0
 10
71.5639
 20
197.5
 30
0.0
 40
0.1
 41
0.1
  0
VERTEX
  8
0
 10
71.7556
 20
197.487
 30
0.0
 40
0.1
 41
0.1
  0
VERTEX
  8
0
 10
72.0038
 20
197.449
 30
0.0
 40
0.1
 41
0.1
  0
VERTEX
  8
0
 10
72.2433
 20
197.388
 30
0.0
 40
0.1
 41
0.1
  0
VERTEX
  8
0
 10
72.4731
 20
197.304
 30
0.0
 40
0.1
 41
0.1
  0
VERTEX
  8
0
 10
72.6917
 20
197.199
 30
0.0
 40
0.1
 41
0.1
  0
VERTEX
  8
0
 10
72.8978
 20
197.074
 30
0.0
 40
0.1
 41
0.1
  0
VERTEX
  8
0
 10
73.0903
 20
196.929
 30
0.0
 40
0.1
 41
0.1
  0
VERTEX
  8
0
 10
73.2678
 20
196.768
 30
0.0
 40
0.1
 41
0.1
  0
VERTEX
  8
0
 10
73.429
 20
196.59
 30
0.0
 40
0.1
 41
0.1
  0
VERTEX
  8
0
 10
73.5731
 20
196.397
 30
0.0
 40
0.1
 41
0.1
  0
VERTEX
  8
0
 10
73.6982
 20
196.192
 30
0.0
 40
0.1
 41
0.1
  0
VERTEX
  8
0
 10
73.8035
 20
195.974
 30
0.0
 40
0.1
 41
0.1
  0
VERTEX
  8
0
 10
73.8876
 20
195.743
 30
0.0
 40
0.1
 41
0.1
  0
VERTEX
  8
0
 10
73.9492
 20
195.504
 30
0.0
 40
0.1
 41
0.1
  0
VERTEX
  8
0
 10
73.9871
 20
195.256
 30
0.0
 40
0.1
 41
0.1
  0
VERTEX
  8
0
 10
74
 20
195.064
 30
0.0
 40
0.1
 41
0.1
  0
VERTEX
  8
0
 10
74
 20
195
 30
0.0
 40
0.1
 41
0.1
  0
SEQEND
 8
0
  0
POLYLINE
  8
0
 62
     0
 66
     1
 10
0
 20
0
 30
0.0
 70
     1
 40
7.2
 41
7.2
  0
VERTEX
  8
0
 10
164
 20
195
 30
0.0
 40
0.1
 41
0.1
  0
VERTEX
  8
0
 10
164
 20
175
 30
0.0
 40
0.1
 41
0.1
  0
VERTEX
  8
0
 10
164
 20
174.936
 30
0.0
 40
0.1
 41
0.1
  0
VERTEX
  8
0
 10
163.987
 20
174.744
 30
0.0
 40
0.1
 41
0.1
  0
VERTEX
  8
0
 10
163.949
 20
174.496
 30
0.0
 40
0.1
 41
0.1
  0
VERTEX
  8
0
 10
163.888
 20
174.257
 30
0.0
 40
0.1
 41
0.1
  0
VERTEX
  8
0
 10
163.804
 20
174.026
 30
0.0
 40
0.1
 41
0.1
  0
VERTEX
  8
0
 10
163.699
 20
173.808
 30
0.0
 40
0.1
 41
0.1
  0
VERTEX
  8
0
 10
163.574
 20
173.603
 30
0.0
 40
0.1
 41
0.1
  0
VERTEX
  8
0
 10
163.429
 20
173.41
 30
0.0
 40
0.1
 41
0.1
  0
VERTEX
  8
0
 10
163.268
 20
173.232
 30
0.0
 40
0.1
 41
0.1
  0
VERTEX
  8
0
 10
163.09
 20
173.071
 30
0.0
 40
0.1
 41
0.1
  0
VERTEX
  8
0
 10
162.897
 20
172.926
 30
0.0
 40
0.1
 41
0.1
  0
VERTEX
  8
0
 10
162.692
 20
172.801
 30
0.0
 40
0.1
 41
0.1
  0
VERTEX
  8
0
 10
162.474
 20
172.696
 30
0.0
 40
0.1
 41
0.1
  0
VERTEX
  8
0
 10
162.243
 20
172.612
 30
0.0
 40
0.1
 41
0.1
  0
VERTEX
  8
0
 10
162.004
 20
172.551
 30
0.0
 40
0.1
 41
0.1
  0
VERTEX
  8
0
 10
161.756
 20
172.513
 30
0.0
 40
0.1
 41
0.1
  0
VERTEX
  8
0
 10
161.564
 20
172.5
 30
0.0
 40
0.1
 41
0.1
  0
VERTEX
  8
0
 10
161.5
 20
172.5
 30
0.0
 40
0.1
 41
0.1
  0
VERTEX
  8
0
 10
161.436
 20
172.5
 30
0.0
 40
0.1
 41
0.1
  0
VERTEX
  8
0
 10
161.244
 20
172.513
 30
0.0
 40
0.1
 41
0.1
  0
VERTEX
  8
0
 10
160.996
 20
172.551
 30
0.0
 40
0.1
 41
0.1
  0
VERTEX
  8
0
 10
160.757
 20
172.612
 30
0.0
 40
0.1
 41
0.1
  0
VERTEX
  8
0
 10
160.526
 20
172.696
 30
0.0
 40
0.1
 41
0.1
  0
VERTEX
  8
0
 10
160.308
 20
172.801
 30
0.0
 40
0.1
 41
0.1
  0
VERTEX
  8
0
 10
160.103
 20
172.926
 30
0.0
 40
0.1
 41
0.1
  0
VERTEX
  8
0
 10
159.91
 20
173.071
 30
0.0
 40
0.1
 41
0.1
  0
VERTEX
  8
0
 10
159.732
 20
173.232
 30
0.0
 40
0.1
 41
0.1
  0
VERTEX
  8
0
 10
159.571
 20
173.41
 30
0.0
 40
0.1
 41
0.1
  0
VERTEX
  8
0
 10
159.426
 20
173.603
 30
0.0
 40
0.1
 41
0.1
  0
VERTEX
  8
0
 10
159.301
 20
173.808
 30
0.0
 40
0.1
 41
0.1
  0
VERTEX
  8
0
 10
159.196
 20
174.026
 30
0.0
 40
0.1
 41
0.1
  0
VERTEX
  8
0
 10
159.112
 20
174.257
 30
0.0
 40
0.1
 41
0.1
  0
VERTEX
  8
0
 10
159.051
 20
174.496
 30
0.0
 40
0.1
 41
0.1
  0
VERTEX
  8
0
 10
159.013
 20
174.744
 30
0.0
 40
0.1
 41
0.1
  0
VERTEX
  8
0
 10
159
 20
174.936
 30
0.0
 40
0.1
 41
0.1
  0
VERTEX
  8
0
 10
159
 20
175
 30
0.0
 40
0.1
 41
0.1
  0
VERTEX
  8
0
 10
159
 20
195
 30
0.0
 40
0.1
 41
0.1
  0
VERTEX
  8
0
 10
159
 20
195.064
 30
0.0
 40
0.1
 41
0.1
  0
VERTEX
  8
0
 10
159.013
 20
195.256
 30
0.0
 40
0.1
 41
0.1
  0
VERTEX
  8
0
 10
159.051
 20
195.504
 30
0.0
 40
0.1
 41
0.1
  0
VERTEX
  8
0
 10
159.112
 20
195.743
 30
0.0
 40
0.1
 41
0.1
  0
VERTEX
  8
0
 10
159.196
 20
195.974
 30
0.0
 40
0.1
 41
0.1
  0
VERTEX
  8
0
 10
159.301
 20
196.192
 30
0.0
 40
0.1
 41
0.1
  0
VERTEX
  8
0
 10
159.426
 20
196.397
 30
0.0
 40
0.1
 41
0.1
  0
VERTEX
  8
0
 10
159.571
 20
196.59
 30
0.0
 40
0.1
 41
0.1
  0
VERTEX
  8
0
 10
159.732
 20
196.768
 30
0.0
 40
0.1
 41
0.1
  0
VERTEX
  8
0
 10
159.91
 20
196.929
 30
0.0
 40
0.1
 41
0.1
  0
VERTEX
  8
0
 10
160.103
 20
197.074
 30
0.0
 40
0.1
 41
0.1
  0
VERTEX
  8
0
 10
160.308
 20
197.199
 30
0.0
 40
0.1
 41
0.1
  0
VERTEX
  8
0
 10
160.526
 20
197.304
 30
0.0
 40
0.1
 41
0.1
  0
VERTEX
  8
0
 10
160.757
 20
197.388
 30
0.0
 40
0.1
 41
0.1
  0
VERTEX
  8
0
 10
160.996
 20
197.449
 30
0.0
 40
0.1
 41
0.1
  0
VERTEX
  8
0
 10
161.244
 20
197.487
 30
0.0
 40
0.1
 41
0.1
  0
VERTEX
  8
0
 10
161.436
 20
197.5
 30
0.0
 40
0.1
 41
0.1
  0
VERTEX
  8
0
 10
161.5
 20
197.5
 30
0.0
 40
0.1
 41
0.1
  0
VERTEX
  8
0
 10
161.564
 20
197.5
 30
0.0
 40
0.1
 41
0.1
  0
VERTEX
  8
0
 10
161.756
 20
197.487
 30
0.0
 40
0.1
 41
0.1
  0
VERTEX
  8
0
 10
162.004
 20
197.449
 30
0.0
 40
0.1
 41
0.1
  0
VERTEX
  8
0
 10
162.243
 20
197.388
 30
0.0
 40
0.1
 41
0.1
  0
VERTEX
  8
0
 10
162.474
 20
197.304
 30
0.0
 40
0.1
 41
0.1
  0
VERTEX
  8
0
 10
162.692
 20
197.199
 30
0.0
 40
0.1
 41
0.1
  0
VERTEX
  8
0
 10
162.897
 20
197.074
 30
0.0
 40
0.1
 41
0.1
  0
VERTEX
  8
0
 10
163.09
 20
196.929
 30
0.0
 40
0.1
 41
0.1
  0
VERTEX
  8
0
 10
163.268
 20
196.768
 30
0.0
 40
0.1
 41
0.1
  0
VERTEX
  8
0
 10
163.429
 20
196.59
 30
0.0
 40
0.1
 41
0.1
  0
VERTEX
  8
0
 10
163.574
 20
196.397
 30
0.0
 40
0.1
 41
0.1
  0
VERTEX
  8
0
 10
163.699
 20
196.192
 30
0.0
 40
0.1
 41
0.1
  0
VERTEX
  8
0
 10
163.804
 20
195.974
 30
0.0
 40
0.1
 41
0.1
  0
VERTEX
  8
0
 10
163.888
 20
195.743
 30
0.0
 40
0.1
 41
0.1
  0
VERTEX
  8
0
 10
163.949
 20
195.504
 30
0.0
 40
0.1
 41
0.1
  0
VERTEX
  8
0
 10
163.987
 20
195.256
 30
0.0
 40
0.1
 41
0.1
  0
VERTEX
  8
0
 10
164
 20
195.064
 30
0.0
 40
0.1
 41
0.1
  0
VERTEX
  8
0
 10
164
 20
195
 30
0.0
 40
0.1
 41
0.1
  0
SEQEND
 8
0
  0
POLYLINE
  8
0
 62
     0
 66
     1
 10
0
 20
0
 30
0.0
 70
     1
 40
7.2
 41
7.2
  0
VERTEX
  8
0
 10
164
 20
65
 30
0.0
 40
0.1
 41
0.1
  0
VERTEX
  8
0
 10
164
 20
45
 30
0.0
 40
0.1
 41
0.1
  0
VERTEX
  8
0
 10
164
 20
44.9361
 30
0.0
 40
0.1
 41
0.1
  0
VERTEX
  8
0
 10
163.987
 20
44.7444
 30
0.0
 40
0.1
 41
0.1
  0
VERTEX
  8
0
 10
163.949
 20
44.4963
 30
0.0
 40
0.1
 41
0.1
  0
VERTEX
  8
0
 10
163.888
 20
44.2567
 30
0.0
 40
0.1
 41
0.1
  0
VERTEX
  8
0
 10
163.804
 20
44.0269
 30
0.0
 40
0.1
 41
0.1
  0
VERTEX
  8
0
 10
163.699
 20
43.8083
 30
0.0
 40
0.1
 41
0.1
  0
VERTEX
  8
0
 10
163.574
 20
43.6022
 30
0.0
 40
0.1
 41
0.1
  0
VERTEX
  8
0
 10
163.429
 20
43.4097
 30
0.0
 40
0.1
 41
0.1
  0
VERTEX
  8
0
 10
163.268
 20
43.2322
 30
0.0
 40
0.1
 41
0.1
  0
VERTEX
  8
0
 10
163.09
 20
43.071
 30
0.0
 40
0.1
 41
0.1
  0
VERTEX
  8
0
 10
162.897
 20
42.9269
 30
0.0
 40
0.1
 41
0.1
  0
VERTEX
  8
0
 10
162.692
 20
42.8018
 30
0.0
 40
0.1
 41
0.1
  0
VERTEX
  8
0
 10
162.474
 20
42.6965
 30
0.0
 40
0.1
 41
0.1
  0
VERTEX
  8
0
 10
162.243
 20
42.6124
 30
0.0
 40
0.1
 41
0.1
  0
VERTEX
  8
0
 10
162.004
 20
42.5508
 30
0.0
 40
0.1
 41
0.1
  0
VERTEX
  8
0
 10
161.756
 20
42.5129
 30
0.0
 40
0.1
 41
0.1
  0
VERTEX
  8
0
 10
161.564
 20
42.5
 30
0.0
 40
0.1
 41
0.1
  0
VERTEX
  8
0
 10
161.5
 20
42.5
 30
0.0
 40
0.1
 41
0.1
  0
VERTEX
  8
0
 10
161.436
 20
42.5
 30
0.0
 40
0.1
 41
0.1
  0
VERTEX
  8
0
 10
161.244
 20
42.5129
 30
0.0
 40
0.1
 41
0.1
  0
VERTEX
  8
0
 10
160.996
 20
42.5508
 30
0.0
 40
0.1
 41
0.1
  0
VERTEX
  8
0
 10
160.757
 20
42.6124
 30
0.0
 40
0.1
 41
0.1
  0
VERTEX
  8
0
 10
160.526
 20
42.6965
 30
0.0
 40
0.1
 41
0.1
  0
VERTEX
  8
0
 10
160.308
 20
42.8018
 30
0.0
 40
0.1
 41
0.1
  0
VERTEX
  8
0
 10
160.103
 20
42.9269
 30
0.0
 40
0.1
 41
0.1
  0
VERTEX
  8
0
 10
159.91
 20
43.071
 30
0.0
 40
0.1
 41
0.1
  0
VERTEX
  8
0
 10
159.732
 20
43.2322
 30
0.0
 40
0.1
 41
0.1
  0
VERTEX
  8
0
 10
159.571
 20
43.4097
 30
0.0
 40
0.1
 41
0.1
  0
VERTEX
  8
0
 10
159.426
 20
43.6022
 30
0.0
 40
0.1
 41
0.1
  0
VERTEX
  8
0
 10
159.301
 20
43.8083
 30
0.0
 40
0.1
 41
0.1
  0
VERTEX
  8
0
 10
159.196
 20
44.0269
 30
0.0
 40
0.1
 41
0.1
  0
VERTEX
  8
0
 10
159.112
 20
44.2567
 30
0.0
 40
0.1
 41
0.1
  0
VERTEX
  8
0
 10
159.051
 20
44.4963
 30
0.0
 40
0.1
 41
0.1
  0
VERTEX
  8
0
 10
159.013
 20
44.7444
 30
0.0
 40
0.1
 41
0.1
  0
VERTEX
  8
0
 10
159
 20
44.9361
 30
0.0
 40
0.1
 41
0.1
  0
VERTEX
  8
0
 10
159
 20
45
 30
0.0
 40
0.1
 41
0.1
  0
VERTEX
  8
0
 10
159
 20
65
 30
0.0
 40
0.1
 41
0.1
  0
VERTEX
  8
0
 10
159
 20
65.0639
 30
0.0
 40
0.1
 41
0.1
  0
VERTEX
  8
0
 10
159.013
 20
65.2557
 30
0.0
 40
0.1
 41
0.1
  0
VERTEX
  8
0
 10
159.051
 20
65.5039
 30
0.0
 40
0.1
 41
0.1
  0
VERTEX
  8
0
 10
159.112
 20
65.7435
 30
0.0
 40
0.1
 41
0.1
  0
VERTEX
  8
0
 10
159.196
 20
65.9732
 30
0.0
 40
0.1
 41
0.1
  0
VERTEX
  8
0
 10
159.301
 20
66.1917
 30
0.0
 40
0.1
 41
0.1
  0
VERTEX
  8
0
 10
159.426
 20
66.3978
 30
0.0
 40
0.1
 41
0.1
  0
VERTEX
  8
0
 10
159.571
 20
66.5903
 30
0.0
 40
0.1
 41
0.1
  0
VERTEX
  8
0
 10
159.732
 20
66.7678
 30
0.0
 40
0.1
 41
0.1
  0
VERTEX
  8
0
 10
159.91
 20
66.9292
 30
0.0
 40
0.1
 41
0.1
  0
VERTEX
  8
0
 10
160.103
 20
67.0731
 30
0.0
 40
0.1
 41
0.1
  0
VERTEX
  8
0
 10
160.308
 20
67.1983
 30
0.0
 40
0.1
 41
0.1
  0
VERTEX
  8
0
 10
160.526
 20
67.3036
 30
0.0
 40
0.1
 41
0.1
  0
VERTEX
  8
0
 10
160.757
 20
67.3876
 30
0.0
 40
0.1
 41
0.1
  0
VERTEX
  8
0
 10
160.996
 20
67.4492
 30
0.0
 40
0.1
 41
0.1
  0
VERTEX
  8
0
 10
161.244
 20
67.4871
 30
0.0
 40
0.1
 41
0.1
  0
VERTEX
  8
0
 10
161.436
 20
67.5
 30
0.0
 40
0.1
 41
0.1
  0
VERTEX
  8
0
 10
161.5
 20
67.5
 30
0.0
 40
0.1
 41
0.1
  0
VERTEX
  8
0
 10
161.564
 20
67.5
 30
0.0
 40
0.1
 41
0.1
  0
VERTEX
  8
0
 10
161.756
 20
67.4871
 30
0.0
 40
0.1
 41
0.1
  0
VERTEX
  8
0
 10
162.004
 20
67.4492
 30
0.0
 40
0.1
 41
0.1
  0
VERTEX
  8
0
 10
162.243
 20
67.3876
 30
0.0
 40
0.1
 41
0.1
  0
VERTEX
  8
0
 10
162.474
 20
67.3036
 30
0.0
 40
0.1
 41
0.1
  0
VERTEX
  8
0
 10
162.692
 20
67.1983
 30
0.0
 40
0.1
 41
0.1
  0
VERTEX
  8
0
 10
162.897
 20
67.0731
 30
0.0
 40
0.1
 41
0.1
  0
VERTEX
  8
0
 10
163.09
 20
66.9292
 30
0.0
 40
0.1
 41
0.1
  0
VERTEX
  8
0
 10
163.268
 20
66.7678
 30
0.0
 40
0.1
 41
0.1
  0
VERTEX
  8
0
 10
163.429
 20
66.5903
 30
0.0
 40
0.1
 41
0.1
  0
VERTEX
  8
0
 10
163.574
 20
66.3978
 30
0.0
 40
0.1
 41
0.1
  0
VERTEX
  8
0
 10
163.699
 20
66.1917
 30
0.0
 40
0.1
 41
0.1
  0
VERTEX
  8
0
 10
163.804
 20
65.9732
 30
0.0
 40
0.1
 41
0.1
  0
VERTEX
  8
0
 10
163.888
 20
65.7435
 30
0.0
 40
0.1
 41
0.1
  0
VERTEX
  8
0
 10
163.949
 20
65.5039
 30
0.0
 40
0.1
 41
0.1
  0
VERTEX
  8
0
 10
163.987
 20
65.2557
 30
0.0
 40
0.1
 41
0.1
  0
VERTEX
  8
0
 10
164
 20
65.0639
 30
0.0
 40
0.1
 41
0.1
  0
VERTEX
  8
0
 10
164
 20
65
 30
0.0
 40
0.1
 41
0.1
  0
SEQEND
 8
0
  0
POLYLINE
  8
0
 62
     0
 66
     1
 10
0
 20
0
 30
0.0
 70
     1
 40
7.2
 41
7.2
  0
VERTEX
  8
0
 10
184.85
 20
52.84
 30
0.0
 40
0.1
 41
0.1
  0
VERTEX
  8
0
 10
184.85
 20
52.7761
 30
0.0
 40
0.1
 41
0.1
  0
VERTEX
  8
0
 10
184.837
 20
52.5844
 30
0.0
 40
0.1
 41
0.1
  0
VERTEX
  8
0
 10
184.799
 20
52.3362
 30
0.0
 40
0.1
 41
0.1
  0
VERTEX
  8
0
 10
184.737
 20
52.0967
 30
0.0
 40
0.1
 41
0.1
  0
VERTEX
  8
0
 10
184.654
 20
51.8669
 30
0.0
 40
0.1
 41
0.1
  0
VERTEX
  8
0
 10
184.549
 20
51.6483
 30
0.0
 40
0.1
 41
0.1
  0
VERTEX
  8
0
 10
184.424
 20
51.4422
 30
0.0
 40
0.1
 41
0.1
  0
VERTEX
  8
0
 10
184.279
 20
51.2497
 30
0.0
 40
0.1
 41
0.1
  0
VERTEX
  8
0
 10
184.118
 20
51.0722
 30
0.0
 40
0.1
 41
0.1
  0
VERTEX
  8
0
 10
183.94
 20
50.911
 30
0.0
 40
0.1
 41
0.1
  0
VERTEX
  8
0
 10
183.747
 20
50.7669
 30
0.0
 40
0.1
 41
0.1
  0
VERTEX
  8
0
 10
183.542
 20
50.6418
 30
0.0
 40
0.1
 41
0.1
  0
VERTEX
  8
0
 10
183.324
 20
50.5365
 30
0.0
 40
0.1
 41
0.1
  0
VERTEX
  8
0
 10
183.093
 20
50.4524
 30
0.0
 40
0.1
 41
0.1
  0
VERTEX
  8
0
 10
182.854
 20
50.3908
 30
0.0
 40
0.1
 41
0.1
  0
VERTEX
  8
0
 10
182.606
 20
50.3529
 30
0.0
 40
0.1
 41
0.1
  0
VERTEX
  8
0
 10
182.414
 20
50.34
 30
0.0
 40
0.1
 41
0.1
  0
VERTEX
  8
0
 10
182.35
 20
50.34
 30
0.0
 40
0.1
 41
0.1
  0
VERTEX
  8
0
 10
182.286
 20
50.34
 30
0.0
 40
0.1
 41
0.1
  0
VERTEX
  8
0
 10
182.094
 20
50.3529
 30
0.0
 40
0.1
 41
0.1
  0
VERTEX
  8
0
 10
181.846
 20
50.3908
 30
0.0
 40
0.1
 41
0.1
  0
VERTEX
  8
0
 10
181.607
 20
50.4524
 30
0.0
 40
0.1
 41
0.1
  0
VERTEX
  8
0
 10
181.376
 20
50.5365
 30
0.0
 40
0.1
 41
0.1
  0
VERTEX
  8
0
 10
181.158
 20
50.6418
 30
0.0
 40
0.1
 41
0.1
  0
VERTEX
  8
0
 10
180.953
 20
50.7669
 30
0.0
 40
0.1
 41
0.1
  0
VERTEX
  8
0
 10
180.76
 20
50.911
 30
0.0
 40
0.1
 41
0.1
  0
VERTEX
  8
0
 10
180.582
 20
51.0722
 30
0.0
 40
0.1
 41
0.1
  0
VERTEX
  8
0
 10
180.421
 20
51.2497
 30
0.0
 40
0.1
 41
0.1
  0
VERTEX
  8
0
 10
180.276
 20
51.4422
 30
0.0
 40
0.1
 41
0.1
  0
VERTEX
  8
0
 10
180.151
 20
51.6483
 30
0.0
 40
0.1
 41
0.1
  0
VERTEX
  8
0
 10
180.046
 20
51.8669
 30
0.0
 40
0.1
 41
0.1
  0
VERTEX
  8
0
 10
179.962
 20
52.0967
 30
0.0
 40
0.1
 41
0.1
  0
VERTEX
  8
0
 10
179.901
 20
52.3362
 30
0.0
 40
0.1
 41
0.1
  0
VERTEX
  8
0
 10
179.862
 20
52.5844
 30
0.0
 40
0.1
 41
0.1
  0
VERTEX
  8
0
 10
179.85
 20
52.7761
 30
0.0
 40
0.1
 41
0.1
  0
VERTEX
  8
0
 10
179.85
 20
52.84
 30
0.0
 40
0.1
 41
0.1
  0
VERTEX
  8
0
 10
179.85
 20
52.9039
 30
0.0
 40
0.1
 41
0.1
  0
VERTEX
  8
0
 10
179.862
 20
53.0957
 30
0.0
 40
0.1
 41
0.1
  0
VERTEX
  8
0
 10
179.901
 20
53.3439
 30
0.0
 40
0.1
 41
0.1
  0
VERTEX
  8
0
 10
179.962
 20
53.5835
 30
0.0
 40
0.1
 41
0.1
  0
VERTEX
  8
0
 10
180.046
 20
53.8132
 30
0.0
 40
0.1
 41
0.1
  0
VERTEX
  8
0
 10
180.151
 20
54.0317
 30
0.0
 40
0.1
 41
0.1
  0
VERTEX
  8
0
 10
180.276
 20
54.2378
 30
0.0
 40
0.1
 41
0.1
  0
VERTEX
  8
0
 10
180.421
 20
54.4303
 30
0.0
 40
0.1
 41
0.1
  0
VERTEX
  8
0
 10
180.582
 20
54.6078
 30
0.0
 40
0.1
 41
0.1
  0
VERTEX
  8
0
 10
180.76
 20
54.7692
 30
0.0
 40
0.1
 41
0.1
  0
VERTEX
  8
0
 10
180.953
 20
54.9131
 30
0.0
 40
0.1
 41
0.1
  0
VERTEX
  8
0
 10
181.158
 20
55.0383
 30
0.0
 40
0.1
 41
0.1
  0
VERTEX
  8
0
 10
181.376
 20
55.1436
 30
0.0
 40
0.1
 41
0.1
  0
VERTEX
  8
0
 10
181.607
 20
55.2276
 30
0.0
 40
0.1
 41
0.1
  0
VERTEX
  8
0
 10
181.846
 20
55.2892
 30
0.0
 40
0.1
 41
0.1
  0
VERTEX
  8
0
 10
182.094
 20
55.3271
 30
0.0
 40
0.1
 41
0.1
  0
VERTEX
  8
0
 10
182.286
 20
55.34
 30
0.0
 40
0.1
 41
0.1
  0
VERTEX
  8
0
 10
182.35
 20
55.34
 30
0.0
 40
0.1
 41
0.1
  0
VERTEX
  8
0
 10
182.414
 20
55.34
 30
0.0
 40
0.1
 41
0.1
  0
VERTEX
  8
0
 10
182.606
 20
55.3271
 30
0.0
 40
0.1
 41
0.1
  0
VERTEX
  8
0
 10
182.854
 20
55.2892
 30
0.0
 40
0.1
 41
0.1
  0
VERTEX
  8
0
 10
183.093
 20
55.2276
 30
0.0
 40
0.1
 41
0.1
  0
VERTEX
  8
0
 10
183.324
 20
55.1436
 30
0.0
 40
0.1
 41
0.1
  0
VERTEX
  8
0
 10
183.542
 20
55.0383
 30
0.0
 40
0.1
 41
0.1
  0
VERTEX
  8
0
 10
183.747
 20
54.9131
 30
0.0
 40
0.1
 41
0.1
  0
VERTEX
  8
0
 10
183.94
 20
54.7692
 30
0.0
 40
0.1
 41
0.1
  0
VERTEX
  8
0
 10
184.118
 20
54.6078
 30
0.0
 40
0.1
 41
0.1
  0
VERTEX
  8
0
 10
184.279
 20
54.4303
 30
0.0
 40
0.1
 41
0.1
  0
VERTEX
  8
0
 10
184.424
 20
54.2378
 30
0.0
 40
0.1
 41
0.1
  0
VERTEX
  8
0
 10
184.549
 20
54.0317
 30
0.0
 40
0.1
 41
0.1
  0
VERTEX
  8
0
 10
184.654
 20
53.8132
 30
0.0
 40
0.1
 41
0.1
  0
VERTEX
  8
0
 10
184.737
 20
53.5835
 30
0.0
 40
0.1
 41
0.1
  0
VERTEX
  8
0
 10
184.799
 20
53.3439
 30
0.0
 40
0.1
 41
0.1
  0
VERTEX
  8
0
 10
184.837
 20
53.0957
 30
0.0
 40
0.1
 41
0.1
  0
VERTEX
  8
0
 10
184.85
 20
52.9039
 30
0.0
 40
0.1
 41
0.1
  0
VERTEX
  8
0
 10
184.85
 20
52.84
 30
0.0
 40
0.1
 41
0.1
  0
SEQEND
 8
0
  0
POLYLINE
  8
0
 62
     0
 66
     1
 10
0
 20
0
 30
0.0
 70
     1
 40
7.2
 41
7.2
  0
VERTEX
  8
0
 10
184.85
 20
184.919
 30
0.0
 40
0.1
 41
0.1
  0
VERTEX
  8
0
 10
184.85
 20
184.856
 30
0.0
 40
0.1
 41
0.1
  0
VERTEX
  8
0
 10
184.837
 20
184.664
 30
0.0
 40
0.1
 41
0.1
  0
VERTEX
  8
0
 10
184.799
 20
184.417
 30
0.0
 40
0.1
 41
0.1
  0
VERTEX
  8
0
 10
184.737
 20
184.176
 30
0.0
 40
0.1
 41
0.1
  0
VERTEX
  8
0
 10
184.654
 20
183.947
 30
0.0
 40
0.1
 41
0.1
  0
VERTEX
  8
0
 10
184.549
 20
183.728
 30
0.0
 40
0.1
 41
0.1
  0
VERTEX
  8
0
 10
184.424
 20
183.522
 30
0.0
 40
0.1
 41
0.1
  0
VERTEX
  8
0
 10
184.279
 20
183.329
 30
0.0
 40
0.1
 41
0.1
  0
VERTEX
  8
0
 10
184.118
 20
183.153
 30
0.0
 40
0.1
 41
0.1
  0
VERTEX
  8
0
 10
183.94
 20
182.99
 30
0.0
 40
0.1
 41
0.1
  0
VERTEX
  8
0
 10
183.747
 20
182.847
 30
0.0
 40
0.1
 41
0.1
  0
VERTEX
  8
0
 10
183.542
 20
182.722
 30
0.0
 40
0.1
 41
0.1
  0
VERTEX
  8
0
 10
183.324
 20
182.617
 30
0.0
 40
0.1
 41
0.1
  0
VERTEX
  8
0
 10
183.093
 20
182.532
 30
0.0
 40
0.1
 41
0.1
  0
VERTEX
  8
0
 10
182.854
 20
182.471
 30
0.0
 40
0.1
 41
0.1
  0
VERTEX
  8
0
 10
182.606
 20
182.433
 30
0.0
 40
0.1
 41
0.1
  0
VERTEX
  8
0
 10
182.414
 20
182.419
 30
0.0
 40
0.1
 41
0.1
  0
VERTEX
  8
0
 10
182.35
 20
182.419
 30
0.0
 40
0.1
 41
0.1
  0
VERTEX
  8
0
 10
182.286
 20
182.419
 30
0.0
 40
0.1
 41
0.1
  0
VERTEX
  8
0
 10
182.094
 20
182.433
 30
0.0
 40
0.1
 41
0.1
  0
VERTEX
  8
0
 10
181.846
 20
182.471
 30
0.0
 40
0.1
 41
0.1
  0
VERTEX
  8
0
 10
181.607
 20
182.532
 30
0.0
 40
0.1
 41
0.1
  0
VERTEX
  8
0
 10
181.376
 20
182.617
 30
0.0
 40
0.1
 41
0.1
  0
VERTEX
  8
0
 10
181.158
 20
182.722
 30
0.0
 40
0.1
 41
0.1
  0
VERTEX
  8
0
 10
180.953
 20
182.847
 30
0.0
 40
0.1
 41
0.1
  0
VERTEX
  8
0
 10
180.76
 20
182.99
 30
0.0
 40
0.1
 41
0.1
  0
VERTEX
  8
0
 10
180.582
 20
183.153
 30
0.0
 40
0.1
 41
0.1
  0
VERTEX
  8
0
 10
180.421
 20
183.329
 30
0.0
 40
0.1
 41
0.1
  0
VERTEX
  8
0
 10
180.276
 20
183.522
 30
0.0
 40
0.1
 41
0.1
  0
VERTEX
  8
0
 10
180.151
 20
183.728
 30
0.0
 40
0.1
 41
0.1
  0
VERTEX
  8
0
 10
180.046
 20
183.947
 30
0.0
 40
0.1
 41
0.1
  0
VERTEX
  8
0
 10
179.962
 20
184.176
 30
0.0
 40
0.1
 41
0.1
  0
VERTEX
  8
0
 10
179.901
 20
184.417
 30
0.0
 40
0.1
 41
0.1
  0
VERTEX
  8
0
 10
179.862
 20
184.664
 30
0.0
 40
0.1
 41
0.1
  0
VERTEX
  8
0
 10
179.85
 20
184.856
 30
0.0
 40
0.1
 41
0.1
  0
VERTEX
  8
0
 10
179.85
 20
184.919
 30
0.0
 40
0.1
 41
0.1
  0
VERTEX
  8
0
 10
179.85
 20
184.983
 30
0.0
 40
0.1
 41
0.1
  0
VERTEX
  8
0
 10
179.862
 20
185.175
 30
0.0
 40
0.1
 41
0.1
  0
VERTEX
  8
0
 10
179.901
 20
185.424
 30
0.0
 40
0.1
 41
0.1
  0
VERTEX
  8
0
 10
179.962
 20
185.664
 30
0.0
 40
0.1
 41
0.1
  0
VERTEX
  8
0
 10
180.046
 20
185.893
 30
0.0
 40
0.1
 41
0.1
  0
VERTEX
  8
0
 10
180.151
 20
186.111
 30
0.0
 40
0.1
 41
0.1
  0
VERTEX
  8
0
 10
180.276
 20
186.318
 30
0.0
 40
0.1
 41
0.1
  0
VERTEX
  8
0
 10
180.421
 20
186.51
 30
0.0
 40
0.1
 41
0.1
  0
VERTEX
  8
0
 10
180.582
 20
186.688
 30
0.0
 40
0.1
 41
0.1
  0
VERTEX
  8
0
 10
180.76
 20
186.849
 30
0.0
 40
0.1
 41
0.1
  0
VERTEX
  8
0
 10
180.953
 20
186.993
 30
0.0
 40
0.1
 41
0.1
  0
VERTEX
  8
0
 10
181.158
 20
187.118
 30
0.0
 40
0.1
 41
0.1
  0
VERTEX
  8
0
 10
181.376
 20
187.224
 30
0.0
 40
0.1
 41
0.1
  0
VERTEX
  8
0
 10
181.607
 20
187.307
 30
0.0
 40
0.1
 41
0.1
  0
VERTEX
  8
0
 10
181.846
 20
187.369
 30
0.0
 40
0.1
 41
0.1
  0
VERTEX
  8
0
 10
182.094
 20
187.407
 30
0.0
 40
0.1
 41
0.1
  0
VERTEX
  8
0
 10
182.286
 20
187.419
 30
0.0
 40
0.1
 41
0.1
  0
VERTEX
  8
0
 10
182.35
 20
187.419
 30
0.0
 40
0.1
 41
0.1
  0
VERTEX
  8
0
 10
182.414
 20
187.419
 30
0.0
 40
0.1
 41
0.1
  0
VERTEX
  8
0
 10
182.606
 20
187.407
 30
0.0
 40
0.1
 41
0.1
  0
VERTEX
  8
0
 10
182.854
 20
187.369
 30
0.0
 40
0.1
 41
0.1
  0
VERTEX
  8
0
 10
183.093
 20
187.307
 30
0.0
 40
0.1
 41
0.1
  0
VERTEX
  8
0
 10
183.324
 20
187.224
 30
0.0
 40
0.1
 41
0.1
  0
VERTEX
  8
0
 10
183.542
 20
187.118
 30
0.0
 40
0.1
 41
0.1
  0
VERTEX
  8
0
 10
183.747
 20
186.993
 30
0.0
 40
0.1
 41
0.1
  0
VERTEX
  8
0
 10
183.94
 20
186.849
 30
0.0
 40
0.1
 41
0.1
  0
VERTEX
  8
0
 10
184.118
 20
186.688
 30
0.0
 40
0.1
 41
0.1
  0
VERTEX
  8
0
 10
184.279
 20
186.51
 30
0.0
 40
0.1
 41
0.1
  0
VERTEX
  8
0
 10
184.424
 20
186.318
 30
0.0
 40
0.1
 41
0.1
  0
VERTEX
  8
0
 10
184.549
 20
186.111
 30
0.0
 40
0.1
 41
0.1
  0
VERTEX
  8
0
 10
184.654
 20
185.893
 30
0.0
 40
0.1
 41
0.1
  0
VERTEX
  8
0
 10
184.737
 20
185.664
 30
0.0
 40
0.1
 41
0.1
  0
VERTEX
  8
0
 10
184.799
 20
185.424
 30
0.0
 40
0.1
 41
0.1
  0
VERTEX
  8
0
 10
184.837
 20
185.175
 30
0.0
 40
0.1
 41
0.1
  0
VERTEX
  8
0
 10
184.85
 20
184.983
 30
0.0
 40
0.1
 41
0.1
  0
VERTEX
  8
0
 10
184.85
 20
184.919
 30
0.0
 40
0.1
 41
0.1
  0
SEQEND
 8
0
  0
POLYLINE
  8
0
 62
     0
 66
     1
 10
0
 20
0
 30
0.0
 70
     1
 40
7.2
 41
7.2
  0
VERTEX
  8
0
 10
342.331
 20
184.919
 30
0.0
 40
0.1
 41
0.1
  0
VERTEX
  8
0
 10
342.331
 20
184.856
 30
0.0
 40
0.1
 41
0.1
  0
VERTEX
  8
0
 10
342.317
 20
184.664
 30
0.0
 40
0.1
 41
0.1
  0
VERTEX
  8
0
 10
342.279
 20
184.417
 30
0.0
 40
0.1
 41
0.1
  0
VERTEX
  8
0
 10
342.218
 20
184.176
 30
0.0
 40
0.1
 41
0.1
  0
VERTEX
  8
0
 10
342.133
 20
183.947
 30
0.0
 40
0.1
 41
0.1
  0
VERTEX
  8
0
 10
342.028
 20
183.728
 30
0.0
 40
0.1
 41
0.1
  0
VERTEX
  8
0
 10
341.903
 20
183.522
 30
0.0
 40
0.1
 41
0.1
  0
VERTEX
  8
0
 10
341.76
 20
183.329
 30
0.0
 40
0.1
 41
0.1
  0
VERTEX
  8
0
 10
341.597
 20
183.153
 30
0.0
 40
0.1
 41
0.1
  0
VERTEX
  8
0
 10
341.421
 20
182.99
 30
0.0
 40
0.1
 41
0.1
  0
VERTEX
  8
0
 10
341.228
 20
182.847
 30
0.0
 40
0.1
 41
0.1
  0
VERTEX
  8
0
 10
341.022
 20
182.722
 30
0.0
 40
0.1
 41
0.1
  0
VERTEX
  8
0
 10
340.803
 20
182.617
 30
0.0
 40
0.1
 41
0.1
  0
VERTEX
  8
0
 10
340.574
 20
182.532
 30
0.0
 40
0.1
 41
0.1
  0
VERTEX
  8
0
 10
340.333
 20
182.471
 30
0.0
 40
0.1
 41
0.1
  0
VERTEX
  8
0
 10
340.086
 20
182.433
 30
0.0
 40
0.1
 41
0.1
  0
VERTEX
  8
0
 10
339.894
 20
182.419
 30
0.0
 40
0.1
 41
0.1
  0
VERTEX
  8
0
 10
339.831
 20
182.419
 30
0.0
 40
0.1
 41
0.1
  0
VERTEX
  8
0
 10
339.767
 20
182.419
 30
0.0
 40
0.1
 41
0.1
  0
VERTEX
  8
0
 10
339.575
 20
182.433
 30
0.0
 40
0.1
 41
0.1
  0
VERTEX
  8
0
 10
339.326
 20
182.471
 30
0.0
 40
0.1
 41
0.1
  0
VERTEX
  8
0
 10
339.086
 20
182.532
 30
0.0
 40
0.1
 41
0.1
  0
VERTEX
  8
0
 10
338.857
 20
182.617
 30
0.0
 40
0.1
 41
0.1
  0
VERTEX
  8
0
 10
338.639
 20
182.722
 30
0.0
 40
0.1
 41
0.1
  0
VERTEX
  8
0
 10
338.432
 20
182.847
 30
0.0
 40
0.1
 41
0.1
  0
VERTEX
  8
0
 10
338.24
 20
182.99
 30
0.0
 40
0.1
 41
0.1
  0
VERTEX
  8
0
 10
338.063
 20
183.153
 30
0.0
 40
0.1
 41
0.1
  0
VERTEX
  8
0
 10
337.901
 20
183.329
 30
0.0
 40
0.1
 41
0.1
  0
VERTEX
  8
0
 10
337.757
 20
183.522
 30
0.0
 40
0.1
 41
0.1
  0
VERTEX
  8
0
 10
337.632
 20
183.728
 30
0.0
 40
0.1
 41
0.1
  0
VERTEX
  8
0
 10
337.526
 20
183.947
 30
0.0
 40
0.1
 41
0.1
  0
VERTEX
  8
0
 10
337.443
 20
184.176
 30
0.0
 40
0.1
 41
0.1
  0
VERTEX
  8
0
 10
337.381
 20
184.417
 30
0.0
 40
0.1
 41
0.1
  0
VERTEX
  8
0
 10
337.343
 20
184.664
 30
0.0
 40
0.1
 41
0.1
  0
VERTEX
  8
0
 10
337.331
 20
184.856
 30
0.0
 40
0.1
 41
0.1
  0
VERTEX
  8
0
 10
337.331
 20
184.919
 30
0.0
 40
0.1
 41
0.1
  0
VERTEX
  8
0
 10
337.331
 20
184.983
 30
0.0
 40
0.1
 41
0.1
  0
VERTEX
  8
0
 10
337.343
 20
185.175
 30
0.0
 40
0.1
 41
0.1
  0
VERTEX
  8
0
 10
337.381
 20
185.424
 30
0.0
 40
0.1
 41
0.1
  0
VERTEX
  8
0
 10
337.443
 20
185.664
 30
0.0
 40
0.1
 41
0.1
  0
VERTEX
  8
0
 10
337.526
 20
185.893
 30
0.0
 40
0.1
 41
0.1
  0
VERTEX
  8
0
 10
337.632
 20
186.111
 30
0.0
 40
0.1
 41
0.1
  0
VERTEX
  8
0
 10
337.757
 20
186.318
 30
0.0
 40
0.1
 41
0.1
  0
VERTEX
  8
0
 10
337.901
 20
186.51
 30
0.0
 40
0.1
 41
0.1
  0
VERTEX
  8
0
 10
338.063
 20
186.688
 30
0.0
 40
0.1
 41
0.1
  0
VERTEX
  8
0
 10
338.24
 20
186.849
 30
0.0
 40
0.1
 41
0.1
  0
VERTEX
  8
0
 10
338.432
 20
186.993
 30
0.0
 40
0.1
 41
0.1
  0
VERTEX
  8
0
 10
338.639
 20
187.118
 30
0.0
 40
0.1
 41
0.1
  0
VERTEX
  8
0
 10
338.857
 20
187.224
 30
0.0
 40
0.1
 41
0.1
  0
VERTEX
  8
0
 10
339.086
 20
187.307
 30
0.0
 40
0.1
 41
0.1
  0
VERTEX
  8
0
 10
339.326
 20
187.369
 30
0.0
 40
0.1
 41
0.1
  0
VERTEX
  8
0
 10
339.575
 20
187.407
 30
0.0
 40
0.1
 41
0.1
  0
VERTEX
  8
0
 10
339.767
 20
187.419
 30
0.0
 40
0.1
 41
0.1
  0
VERTEX
  8
0
 10
339.831
 20
187.419
 30
0.0
 40
0.1
 41
0.1
  0
VERTEX
  8
0
 10
339.894
 20
187.419
 30
0.0
 40
0.1
 41
0.1
  0
VERTEX
  8
0
 10
340.086
 20
187.407
 30
0.0
 40
0.1
 41
0.1
  0
VERTEX
  8
0
 10
340.333
 20
187.369
 30
0.0
 40
0.1
 41
0.1
  0
VERTEX
  8
0
 10
340.574
 20
187.307
 30
0.0
 40
0.1
 41
0.1
  0
VERTEX
  8
0
 10
340.803
 20
187.224
 30
0.0
 40
0.1
 41
0.1
  0
VERTEX
  8
0
 10
341.022
 20
187.118
 30
0.0
 40
0.1
 41
0.1
  0
VERTEX
  8
0
 10
341.228
 20
186.993
 30
0.0
 40
0.1
 41
0.1
  0
VERTEX
  8
0
 10
341.421
 20
186.849
 30
0.0
 40
0.1
 41
0.1
  0
VERTEX
  8
0
 10
341.597
 20
186.688
 30
0.0
 40
0.1
 41
0.1
  0
VERTEX
  8
0
 10
341.76
 20
186.51
 30
0.0
 40
0.1
 41
0.1
  0
VERTEX
  8
0
 10
341.903
 20
186.318
 30
0.0
 40
0.1
 41
0.1
  0
VERTEX
  8
0
 10
342.028
 20
186.111
 30
0.0
 40
0.1
 41
0.1
  0
VERTEX
  8
0
 10
342.133
 20
185.893
 30
0.0
 40
0.1
 41
0.1
  0
VERTEX
  8
0
 10
342.218
 20
185.664
 30
0.0
 40
0.1
 41
0.1
  0
VERTEX
  8
0
 10
342.279
 20
185.424
 30
0.0
 40
0.1
 41
0.1
  0
VERTEX
  8
0
 10
342.317
 20
185.175
 30
0.0
 40
0.1
 41
0.1
  0
VERTEX
  8
0
 10
342.331
 20
184.983
 30
0.0
 40
0.1
 41
0.1
  0
VERTEX
  8
0
 10
342.331
 20
184.919
 30
0.0
 40
0.1
 41
0.1
  0
SEQEND
 8
0
  0
POLYLINE
  8
0
 62
     0
 66
     1
 10
0
 20
0
 30
0.0
 70
     1
 40
7.2
 41
7.2
  0
VERTEX
  8
0
 10
342.331
 20
29.98
 30
0.0
 40
0.1
 41
0.1
  0
VERTEX
  8
0
 10
342.331
 20
29.9161
 30
0.0
 40
0.1
 41
0.1
  0
VERTEX
  8
0
 10
342.317
 20
29.7244
 30
0.0
 40
0.1
 41
0.1
  0
VERTEX
  8
0
 10
342.279
 20
29.4763
 30
0.0
 40
0.1
 41
0.1
  0
VERTEX
  8
0
 10
342.218
 20
29.2367
 30
0.0
 40
0.1
 41
0.1
  0
VERTEX
  8
0
 10
342.133
 20
29.0069
 30
0.0
 40
0.1
 41
0.1
  0
VERTEX
  8
0
 10
342.028
 20
28.7883
 30
0.0
 40
0.1
 41
0.1
  0
VERTEX
  8
0
 10
341.903
 20
28.5822
 30
0.0
 40
0.1
 41
0.1
  0
VERTEX
  8
0
 10
341.76
 20
28.3897
 30
0.0
 40
0.1
 41
0.1
  0
VERTEX
  8
0
 10
341.597
 20
28.2122
 30
0.0
 40
0.1
 41
0.1
  0
VERTEX
  8
0
 10
341.421
 20
28.0508
 30
0.0
 40
0.1
 41
0.1
  0
VERTEX
  8
0
 10
341.228
 20
27.9069
 30
0.0
 40
0.1
 41
0.1
  0
VERTEX
  8
0
 10
341.022
 20
27.7818
 30
0.0
 40
0.1
 41
0.1
  0
VERTEX
  8
0
 10
340.803
 20
27.6765
 30
0.0
 40
0.1
 41
0.1
  0
VERTEX
  8
0
 10
340.574
 20
27.5924
 30
0.0
 40
0.1
 41
0.1
  0
VERTEX
  8
0
 10
340.333
 20
27.5308
 30
0.0
 40
0.1
 41
0.1
  0
VERTEX
  8
0
 10
340.086
 20
27.4929
 30
0.0
 40
0.1
 41
0.1
  0
VERTEX
  8
0
 10
339.894
 20
27.48
 30
0.0
 40
0.1
 41
0.1
  0
VERTEX
  8
0
 10
339.831
 20
27.48
 30
0.0
 40
0.1
 41
0.1
  0
VERTEX
  8
0
 10
339.767
 20
27.48
 30
0.0
 40
0.1
 41
0.1
  0
VERTEX
  8
0
 10
339.575
 20
27.4929
 30
0.0
 40
0.1
 41
0.1
  0
VERTEX
  8
0
 10
339.326
 20
27.5308
 30
0.0
 40
0.1
 41
0.1
  0
VERTEX
  8
0
 10
339.086
 20
27.5924
 30
0.0
 40
0.1
 41
0.1
  0
VERTEX
  8
0
 10
338.857
 20
27.6765
 30
0.0
 40
0.1
 41
0.1
  0
VERTEX
  8
0
 10
338.639
 20
27.7818
 30
0.0
 40
0.1
 41
0.1
  0
VERTEX
  8
0
 10
338.432
 20
27.9069
 30
0.0
 40
0.1
 41
0.1
  0
VERTEX
  8
0
 10
338.24
 20
28.0508
 30
0.0
 40
0.1
 41
0.1
  0
VERTEX
  8
0
 10
338.063
 20
28.2122
 30
0.0
 40
0.1
 41
0.1
  0
VERTEX
  8
0
 10
337.901
 20
28.3897
 30
0.0
 40
0.1
 41
0.1
  0
VERTEX
  8
0
 10
337.757
 20
28.5822
 30
0.0
 40
0.1
 41
0.1
  0
VERTEX
  8
0
 10
337.632
 20
28.7883
 30
0.0
 40
0.1
 41
0.1
  0
VERTEX
  8
0
 10
337.526
 20
29.0069
 30
0.0
 40
0.1
 41
0.1
  0
VERTEX
  8
0
 10
337.443
 20
29.2367
 30
0.0
 40
0.1
 41
0.1
  0
VERTEX
  8
0
 10
337.381
 20
29.4763
 30
0.0
 40
0.1
 41
0.1
  0
VERTEX
  8
0
 10
337.343
 20
29.7244
 30
0.0
 40
0.1
 41
0.1
  0
VERTEX
  8
0
 10
337.331
 20
29.9161
 30
0.0
 40
0.1
 41
0.1
  0
VERTEX
  8
0
 10
337.331
 20
29.98
 30
0.0
 40
0.1
 41
0.1
  0
VERTEX
  8
0
 10
337.331
 20
30.0439
 30
0.0
 40
0.1
 41
0.1
  0
VERTEX
  8
0
 10
337.343
 20
30.2356
 30
0.0
 40
0.1
 41
0.1
  0
VERTEX
  8
0
 10
337.381
 20
30.4839
 30
0.0
 40
0.1
 41
0.1
  0
VERTEX
  8
0
 10
337.443
 20
30.7235
 30
0.0
 40
0.1
 41
0.1
  0
VERTEX
  8
0
 10
337.526
 20
30.9532
 30
0.0
 40
0.1
 41
0.1
  0
VERTEX
  8
0
 10
337.632
 20
31.1717
 30
0.0
 40
0.1
 41
0.1
  0
VERTEX
  8
0
 10
337.757
 20
31.3778
 30
0.0
 40
0.1
 41
0.1
  0
VERTEX
  8
0
 10
337.901
 20
31.5703
 30
0.0
 40
0.1
 41
0.1
  0
VERTEX
  8
0
 10
338.063
 20
31.7478
 30
0.0
 40
0.1
 41
0.1
  0
VERTEX
  8
0
 10
338.24
 20
31.9092
 30
0.0
 40
0.1
 41
0.1
  0
VERTEX
  8
0
 10
338.432
 20
32.0531
 30
0.0
 40
0.1
 41
0.1
  0
VERTEX
  8
0
 10
338.639
 20
32.1783
 30
0.0
 40
0.1
 41
0.1
  0
VERTEX
  8
0
 10
338.857
 20
32.2835
 30
0.0
 40
0.1
 41
0.1
  0
VERTEX
  8
0
 10
339.086
 20
32.3676
 30
0.0
 40
0.1
 41
0.1
  0
VERTEX
  8
0
 10
339.326
 20
32.4292
 30
0.0
 40
0.1
 41
0.1
  0
VERTEX
  8
0
 10
339.575
 20
32.4671
 30
0.0
 40
0.1
 41
0.1
  0
VERTEX
  8
0
 10
339.767
 20
32.48
 30
0.0
 40
0.1
 41
0.1
  0
VERTEX
  8
0
 10
339.831
 20
32.48
 30
0.0
 40
0.1
 41
0.1
  0
VERTEX
  8
0
 10
339.894
 20
32.48
 30
0.0
 40
0.1
 41
0.1
  0
VERTEX
  8
0
 10
340.086
 20
32.4671
 30
0.0
 40
0.1
 41
0.1
  0
VERTEX
  8
0
 10
340.333
 20
32.4292
 30
0.0
 40
0.1
 41
0.1
  0
VERTEX
  8
0
 10
340.574
 20
32.3676
 30
0.0
 40
0.1
 41
0.1
  0
VERTEX
  8
0
 10
340.803
 20
32.2835
 30
0.0
 40
0.1
 41
0.1
  0
VERTEX
  8
0
 10
341.022
 20
32.1783
 30
0.0
 40
0.1
 41
0.1
  0
VERTEX
  8
0
 10
341.228
 20
32.0531
 30
0.0
 40
0.1
 41
0.1
  0
VERTEX
  8
0
 10
341.421
 20
31.9092
 30
0.0
 40
0.1
 41
0.1
  0
VERTEX
  8
0
 10
341.597
 20
31.7478
 30
0.0
 40
0.1
 41
0.1
  0
VERTEX
  8
0
 10
341.76
 20
31.5703
 30
0.0
 40
0.1
 41
0.1
  0
VERTEX
  8
0
 10
341.903
 20
31.3778
 30
0.0
 40
0.1
 41
0.1
  0
VERTEX
  8
0
 10
342.028
 20
31.1717
 30
0.0
 40
0.1
 41
0.1
  0
VERTEX
  8
0
 10
342.133
 20
30.9532
 30
0.0
 40
0.1
 41
0.1
  0
VERTEX
  8
0
 10
342.218
 20
30.7235
 30
0.0
 40
0.1
 41
0.1
  0
VERTEX
  8
0
 10
342.279
 20
30.4839
 30
0.0
 40
0.1
 41
0.1
  0
VERTEX
  8
0
 10
342.317
 20
30.2356
 30
0.0
 40
0.1
 41
0.1
  0
VERTEX
  8
0
 10
342.331
 20
30.0439
 30
0.0
 40
0.1
 41
0.1
  0
VERTEX
  8
0
 10
342.331
 20
29.98
 30
0.0
 40
0.1
 41
0.1
  0
SEQEND
 8
0
  0
POLYLINE
  8
0
 62
     0
 66
     1
 10
0
 20
0
 30
0.0
 40
7.2
 41
7.2
  0
VERTEX
  8
0
 10
351
 20
220
 30
0.0
 40
0.1
 41
0.1
  0
VERTEX
  8
0
 10
351
 20
20
 30
0.0
 40
0.1
 41
0.1
  0
SEQEND
 8
0
  0
POLYLINE
  8
0
 62
     0
 66
     1
 10
0
 20
0
 30
0.0
 70
     1
 40
7.2
 41
7.2
  0
VERTEX
  8
0
 10
384.9
 20
185
 30
0.0
 40
0.1
 41
0.1
  0
VERTEX
  8
0
 10
384.9
 20
184.936
 30
0.0
 40
0.1
 41
0.1
  0
VERTEX
  8
0
 10
384.888
 20
184.744
 30
0.0
 40
0.1
 41
0.1
  0
VERTEX
  8
0
 10
384.849
 20
184.496
 30
0.0
 40
0.1
 41
0.1
  0
VERTEX
  8
0
 10
384.787
 20
184.257
 30
0.0
 40
0.1
 41
0.1
  0
VERTEX
  8
0
 10
384.704
 20
184.026
 30
0.0
 40
0.1
 41
0.1
  0
VERTEX
  8
0
 10
384.599
 20
183.808
 30
0.0
 40
0.1
 41
0.1
  0
VERTEX
  8
0
 10
384.474
 20
183.603
 30
0.0
 40
0.1
 41
0.1
  0
VERTEX
  8
0
 10
384.329
 20
183.41
 30
0.0
 40
0.1
 41
0.1
  0
VERTEX
  8
0
 10
384.168
 20
183.232
 30
0.0
 40
0.1
 41
0.1
  0
VERTEX
  8
0
 10
383.99
 20
183.071
 30
0.0
 40
0.1
 41
0.1
  0
VERTEX
  8
0
 10
383.797
 20
182.926
 30
0.0
 40
0.1
 41
0.1
  0
VERTEX
  8
0
 10
383.592
 20
182.801
 30
0.0
 40
0.1
 41
0.1
  0
VERTEX
  8
0
 10
383.374
 20
182.696
 30
0.0
 40
0.1
 41
0.1
  0
VERTEX
  8
0
 10
383.143
 20
182.612
 30
0.0
 40
0.1
 41
0.1
  0
VERTEX
  8
0
 10
382.904
 20
182.551
 30
0.0
 40
0.1
 41
0.1
  0
VERTEX
  8
0
 10
382.656
 20
182.513
 30
0.0
 40
0.1
 41
0.1
  0
VERTEX
  8
0
 10
382.464
 20
182.5
 30
0.0
 40
0.1
 41
0.1
  0
VERTEX
  8
0
 10
382.4
 20
182.5
 30
0.0
 40
0.1
 41
0.1
  0
VERTEX
  8
0
 10
382.336
 20
182.5
 30
0.0
 40
0.1
 41
0.1
  0
VERTEX
  8
0
 10
382.144
 20
182.513
 30
0.0
 40
0.1
 41
0.1
  0
VERTEX
  8
0
 10
381.896
 20
182.551
 30
0.0
 40
0.1
 41
0.1
  0
VERTEX
  8
0
 10
381.657
 20
182.612
 30
0.0
 40
0.1
 41
0.1
  0
VERTEX
  8
0
 10
381.426
 20
182.696
 30
0.0
 40
0.1
 41
0.1
  0
VERTEX
  8
0
 10
381.208
 20
182.801
 30
0.0
 40
0.1
 41
0.1
  0
VERTEX
  8
0
 10
381.003
 20
182.926
 30
0.0
 40
0.1
 41
0.1
  0
VERTEX
  8
0
 10
380.81
 20
183.071
 30
0.0
 40
0.1
 41
0.1
  0
VERTEX
  8
0
 10
380.632
 20
183.232
 30
0.0
 40
0.1
 41
0.1
  0
VERTEX
  8
0
 10
380.471
 20
183.41
 30
0.0
 40
0.1
 41
0.1
  0
VERTEX
  8
0
 10
380.326
 20
183.603
 30
0.0
 40
0.1
 41
0.1
  0
VERTEX
  8
0
 10
380.201
 20
183.808
 30
0.0
 40
0.1
 41
0.1
  0
VERTEX
  8
0
 10
380.096
 20
184.026
 30
0.0
 40
0.1
 41
0.1
  0
VERTEX
  8
0
 10
380.013
 20
184.257
 30
0.0
 40
0.1
 41
0.1
  0
VERTEX
  8
0
 10
379.951
 20
184.496
 30
0.0
 40
0.1
 41
0.1
  0
VERTEX
  8
0
 10
379.912
 20
184.744
 30
0.0
 40
0.1
 41
0.1
  0
VERTEX
  8
0
 10
379.9
 20
184.936
 30
0.0
 40
0.1
 41
0.1
  0
VERTEX
  8
0
 10
379.9
 20
185
 30
0.0
 40
0.1
 41
0.1
  0
VERTEX
  8
0
 10
379.9
 20
185.064
 30
0.0
 40
0.1
 41
0.1
  0
VERTEX
  8
0
 10
379.912
 20
185.256
 30
0.0
 40
0.1
 41
0.1
  0
VERTEX
  8
0
 10
379.951
 20
185.504
 30
0.0
 40
0.1
 41
0.1
  0
VERTEX
  8
0
 10
380.013
 20
185.743
 30
0.0
 40
0.1
 41
0.1
  0
VERTEX
  8
0
 10
380.096
 20
185.974
 30
0.0
 40
0.1
 41
0.1
  0
VERTEX
  8
0
 10
380.201
 20
186.192
 30
0.0
 40
0.1
 41
0.1
  0
VERTEX
  8
0
 10
380.326
 20
186.397
 30
0.0
 40
0.1
 41
0.1
  0
VERTEX
  8
0
 10
380.471
 20
186.59
 30
0.0
 40
0.1
 41
0.1
  0
VERTEX
  8
0
 10
380.632
 20
186.768
 30
0.0
 40
0.1
 41
0.1
  0
VERTEX
  8
0
 10
380.81
 20
186.929
 30
0.0
 40
0.1
 41
0.1
  0
VERTEX
  8
0
 10
381.003
 20
187.074
 30
0.0
 40
0.1
 41
0.1
  0
VERTEX
  8
0
 10
381.208
 20
187.199
 30
0.0
 40
0.1
 41
0.1
  0
VERTEX
  8
0
 10
381.426
 20
187.304
 30
0.0
 40
0.1
 41
0.1
  0
VERTEX
  8
0
 10
381.657
 20
187.388
 30
0.0
 40
0.1
 41
0.1
  0
VERTEX
  8
0
 10
381.896
 20
187.449
 30
0.0
 40
0.1
 41
0.1
  0
VERTEX
  8
0
 10
382.144
 20
187.487
 30
0.0
 40
0.1
 41
0.1
  0
VERTEX
  8
0
 10
382.336
 20
187.5
 30
0.0
 40
0.1
 41
0.1
  0
VERTEX
  8
0
 10
382.4
 20
187.5
 30
0.0
 40
0.1
 41
0.1
  0
VERTEX
  8
0
 10
382.464
 20
187.5
 30
0.0
 40
0.1
 41
0.1
  0
VERTEX
  8
0
 10
382.656
 20
187.487
 30
0.0
 40
0.1
 41
0.1
  0
VERTEX
  8
0
 10
382.904
 20
187.449
 30
0.0
 40
0.1
 41
0.1
  0
VERTEX
  8
0
 10
383.143
 20
187.388
 30
0.0
 40
0.1
 41
0.1
  0
VERTEX
  8
0
 10
383.374
 20
187.304
 30
0.0
 40
0.1
 41
0.1
  0
VERTEX
  8
0
 10
383.592
 20
187.199
 30
0.0
 40
0.1
 41
0.1
  0
VERTEX
  8
0
 10
383.797
 20
187.074
 30
0.0
 40
0.1
 41
0.1
  0
VERTEX
  8
0
 10
383.99
 20
186.929
 30
0.0
 40
0.1
 41
0.1
  0
VERTEX
  8
0
 10
384.168
 20
186.768
 30
0.0
 40
0.1
 41
0.1
  0
VERTEX
  8
0
 10
384.329
 20
186.59
 30
0.0
 40
0.1
 41
0.1
  0
VERTEX
  8
0
 10
384.474
 20
186.397
 30
0.0
 40
0.1
 41
0.1
  0
VERTEX
  8
0
 10
384.599
 20
186.192
 30
0.0
 40
0.1
 41
0.1
  0
VERTEX
  8
0
 10
384.704
 20
185.974
 30
0.0
 40
0.1
 41
0.1
  0
VERTEX
  8
0
 10
384.787
 20
185.743
 30
0.0
 40
0.1
 41
0.1
  0
VERTEX
  8
0
 10
384.849
 20
185.504
 30
0.0
 40
0.1
 41
0.1
  0
VERTEX
  8
0
 10
384.888
 20
185.256
 30
0.0
 40
0.1
 41
0.1
  0
VERTEX
  8
0
 10
384.9
 20
185.064
 30
0.0
 40
0.1
 41
0.1
  0
VERTEX
  8
0
 10
384.9
 20
185
 30
0.0
 40
0.1
 41
0.1
  0
SEQEND
 8
0
  0
POLYLINE
  8
0
 62
     0
 66
     1
 10
0
 20
0
 30
0.0
 70
     1
 40
7.2
 41
7.2
  0
VERTEX
  8
0
 10
384.9
 20
55
 30
0.0
 40
0.1
 41
0.1
  0
VERTEX
  8
0
 10
384.9
 20
54.9361
 30
0.0
 40
0.1
 41
0.1
  0
VERTEX
  8
0
 10
384.888
 20
54.7444
 30
0.0
 40
0.1
 41
0.1
  0
VERTEX
  8
0
 10
384.849
 20
54.4963
 30
0.0
 40
0.1
 41
0.1
  0
VERTEX
  8
0
 10
384.787
 20
54.2567
 30
0.0
 40
0.1
 41
0.1
  0
VERTEX
  8
0
 10
384.704
 20
54.0269
 30
0.0
 40
0.1
 41
0.1
  0
VERTEX
  8
0
 10
384.599
 20
53.8083
 30
0.0
 40
0.1
 41
0.1
  0
VERTEX
  8
0
 10
384.474
 20
53.6022
 30
0.0
 40
0.1
 41
0.1
  0
VERTEX
  8
0
 10
384.329
 20
53.4097
 30
0.0
 40
0.1
 41
0.1
  0
VERTEX
  8
0
 10
384.168
 20
53.2322
 30
0.0
 40
0.1
 41
0.1
  0
VERTEX
  8
0
 10
383.99
 20
53.071
 30
0.0
 40
0.1
 41
0.1
  0
VERTEX
  8
0
 10
383.797
 20
52.9269
 30
0.0
 40
0.1
 41
0.1
  0
VERTEX
  8
0
 10
383.592
 20
52.8018
 30
0.0
 40
0.1
 41
0.1
  0
VERTEX
  8
0
 10
383.374
 20
52.6965
 30
0.0
 40
0.1
 41
0.1
  0
VERTEX
  8
0
 10
383.143
 20
52.6124
 30
0.0
 40
0.1
 41
0.1
  0
VERTEX
  8
0
 10
382.904
 20
52.5508
 30
0.0
 40
0.1
 41
0.1
  0
VERTEX
  8
0
 10
382.656
 20
52.5129
 30
0.0
 40
0.1
 41
0.1
  0
VERTEX
  8
0
 10
382.464
 20
52.5
 30
0.0
 40
0.1
 41
0.1
  0
VERTEX
  8
0
 10
382.4
 20
52.5
 30
0.0
 40
0.1
 41
0.1
  0
VERTEX
  8
0
 10
382.336
 20
52.5
 30
0.0
 40
0.1
 41
0.1
  0
VERTEX
  8
0
 10
382.144
 20
52.5129
 30
0.0
 40
0.1
 41
0.1
  0
VERTEX
  8
0
 10
381.896
 20
52.5508
 30
0.0
 40
0.1
 41
0.1
  0
VERTEX
  8
0
 10
381.657
 20
52.6124
 30
0.0
 40
0.1
 41
0.1
  0
VERTEX
  8
0
 10
381.426
 20
52.6965
 30
0.0
 40
0.1
 41
0.1
  0
VERTEX
  8
0
 10
381.208
 20
52.8018
 30
0.0
 40
0.1
 41
0.1
  0
VERTEX
  8
0
 10
381.003
 20
52.9269
 30
0.0
 40
0.1
 41
0.1
  0
VERTEX
  8
0
 10
380.81
 20
53.071
 30
0.0
 40
0.1
 41
0.1
  0
VERTEX
  8
0
 10
380.632
 20
53.2322
 30
0.0
 40
0.1
 41
0.1
  0
VERTEX
  8
0
 10
380.471
 20
53.4097
 30
0.0
 40
0.1
 41
0.1
  0
VERTEX
  8
0
 10
380.326
 20
53.6022
 30
0.0
 40
0.1
 41
0.1
  0
VERTEX
  8
0
 10
380.201
 20
53.8083
 30
0.0
 40
0.1
 41
0.1
  0
VERTEX
  8
0
 10
380.096
 20
54.0269
 30
0.0
 40
0.1
 41
0.1
  0
VERTEX
  8
0
 10
380.013
 20
54.2567
 30
0.0
 40
0.1
 41
0.1
  0
VERTEX
  8
0
 10
379.951
 20
54.4963
 30
0.0
 40
0.1
 41
0.1
  0
VERTEX
  8
0
 10
379.912
 20
54.7444
 30
0.0
 40
0.1
 41
0.1
  0
VERTEX
  8
0
 10
379.9
 20
54.9361
 30
0.0
 40
0.1
 41
0.1
  0
VERTEX
  8
0
 10
379.9
 20
55
 30
0.0
 40
0.1
 41
0.1
  0
VERTEX
  8
0
 10
379.9
 20
55.0639
 30
0.0
 40
0.1
 41
0.1
  0
VERTEX
  8
0
 10
379.912
 20
55.2557
 30
0.0
 40
0.1
 41
0.1
  0
VERTEX
  8
0
 10
379.951
 20
55.5039
 30
0.0
 40
0.1
 41
0.1
  0
VERTEX
  8
0
 10
380.013
 20
55.7435
 30
0.0
 40
0.1
 41
0.1
  0
VERTEX
  8
0
 10
380.096
 20
55.9732
 30
0.0
 40
0.1
 41
0.1
  0
VERTEX
  8
0
 10
380.201
 20
56.1917
 30
0.0
 40
0.1
 41
0.1
  0
VERTEX
  8
0
 10
380.326
 20
56.3978
 30
0.0
 40
0.1
 41
0.1
  0
VERTEX
  8
0
 10
380.471
 20
56.5903
 30
0.0
 40
0.1
 41
0.1
  0
VERTEX
  8
0
 10
380.632
 20
56.7678
 30
0.0
 40
0.1
 41
0.1
  0
VERTEX
  8
0
 10
380.81
 20
56.9292
 30
0.0
 40
0.1
 41
0.1
  0
VERTEX
  8
0
 10
381.003
 20
57.0731
 30
0.0
 40
0.1
 41
0.1
  0
VERTEX
  8
0
 10
381.208
 20
57.1983
 30
0.0
 40
0.1
 41
0.1
  0
VERTEX
  8
0
 10
381.426
 20
57.3036
 30
0.0
 40
0.1
 41
0.1
  0
VERTEX
  8
0
 10
381.657
 20
57.3876
 30
0.0
 40
0.1
 41
0.1
  0
VERTEX
  8
0
 10
381.896
 20
57.4492
 30
0.0
 40
0.1
 41
0.1
  0
VERTEX
  8
0
 10
382.144
 20
57.4871
 30
0.0
 40
0.1
 41
0.1
  0
VERTEX
  8
0
 10
382.336
 20
57.5
 30
0.0
 40
0.1
 41
0.1
  0
VERTEX
  8
0
 10
382.4
 20
57.5
 30
0.0
 40
0.1
 41
0.1
  0
VERTEX
  8
0
 10
382.464
 20
57.5
 30
0.0
 40
0.1
 41
0.1
  0
VERTEX
  8
0
 10
382.656
 20
57.4871
 30
0.0
 40
0.1
 41
0.1
  0
VERTEX
  8
0
 10
382.904
 20
57.4492
 30
0.0
 40
0.1
 41
0.1
  0
VERTEX
  8
0
 10
383.143
 20
57.3876
 30
0.0
 40
0.1
 41
0.1
  0
VERTEX
  8
0
 10
383.374
 20
57.3036
 30
0.0
 40
0.1
 41
0.1
  0
VERTEX
  8
0
 10
383.592
 20
57.1983
 30
0.0
 40
0.1
 41
0.1
  0
VERTEX
  8
0
 10
383.797
 20
57.0731
 30
0.0
 40
0.1
 41
0.1
  0
VERTEX
  8
0
 10
383.99
 20
56.9292
 30
0.0
 40
0.1
 41
0.1
  0
VERTEX
  8
0
 10
384.168
 20
56.7678
 30
0.0
 40
0.1
 41
0.1
  0
VERTEX
  8
0
 10
384.329
 20
56.5903
 30
0.0
 40
0.1
 41
0.1
  0
VERTEX
  8
0
 10
384.474
 20
56.3978
 30
0.0
 40
0.1
 41
0.1
  0
VERTEX
  8
0
 10
384.599
 20
56.1917
 30
0.0
 40
0.1
 41
0.1
  0
VERTEX
  8
0
 10
384.704
 20
55.9732
 30
0.0
 40
0.1
 41
0.1
  0
VERTEX
  8
0
 10
384.787
 20
55.7435
 30
0.0
 40
0.1
 41
0.1
  0
VERTEX
  8
0
 10
384.849
 20
55.5039
 30
0.0
 40
0.1
 41
0.1
  0
VERTEX
  8
0
 10
384.888
 20
55.2557
 30
0.0
 40
0.1
 41
0.1
  0
VERTEX
  8
0
 10
384.9
 20
55.0639
 30
0.0
 40
0.1
 41
0.1
  0
VERTEX
  8
0
 10
384.9
 20
55
 30
0.0
 40
0.1
 41
0.1
  0
SEQEND
 8
0
  0
POLYLINE
  8
0
 62
     0
 66
     1
 10
0
 20
0
 30
0.0
 70
     1
 40
7.2
 41
7.2
  0
VERTEX
  8
0
 10
375
 20
200
 30
0.0
 40
0.1
 41
0.1
  0
VERTEX
  8
0
 10
375
 20
199.914
 30
0.0
 40
0.1
 41
0.1
  0
VERTEX
  8
0
 10
374.992
 20
199.653
 30
0.0
 40
0.1
 41
0.1
  0
VERTEX
  8
0
 10
374.965
 20
199.308
 30
0.0
 40
0.1
 41
0.1
  0
VERTEX
  8
0
 10
374.924
 20
198.967
 30
0.0
 40
0.1
 41
0.1
  0
VERTEX
  8
0
 10
374.864
 20
198.628
 30
0.0
 40
0.1
 41
0.1
  0
VERTEX
  8
0
 10
374.789
 20
198.294
 30
0.0
 40
0.1
 41
0.1
  0
VERTEX
  8
0
 10
374.697
 20
197.964
 30
0.0
 40
0.1
 41
0.1
  0
VERTEX
  8
0
 10
374.59
 20
197.64
 30
0.0
 40
0.1
 41
0.1
  0
VERTEX
  8
0
 10
374.467
 20
197.321
 30
0.0
 40
0.1
 41
0.1
  0
VERTEX
  8
0
 10
374.329
 20
197.01
 30
0.0
 40
0.1
 41
0.1
  0
VERTEX
  8
0
 10
374.175
 20
196.704
 30
0.0
 40
0.1
 41
0.1
  0
VERTEX
  8
0
 10
374.007
 20
196.406
 30
0.0
 40
0.1
 41
0.1
  0
VERTEX
  8
0
 10
373.824
 20
196.117
 30
0.0
 40
0.1
 41
0.1
  0
VERTEX
  8
0
 10
373.626
 20
195.836
 30
0.0
 40
0.1
 41
0.1
  0
VERTEX
  8
0
 10
373.415
 20
195.564
 30
0.0
 40
0.1
 41
0.1
  0
VERTEX
  8
0
 10
373.189
 20
195.301
 30
0.0
 40
0.1
 41
0.1
  0
VERTEX
  8
0
 10
373.011
 20
195.111
 30
0.0
 40
0.1
 41
0.1
  0
VERTEX
  8
0
 10
372.95
 20
195.05
 30
0.0
 40
0.1
 41
0.1
  0
VERTEX
  8
0
 10
372.889
 20
194.989
 30
0.0
 40
0.1
 41
0.1
  0
VERTEX
  8
0
 10
372.699
 20
194.811
 30
0.0
 40
0.1
 41
0.1
  0
VERTEX
  8
0
 10
372.436
 20
194.585
 30
0.0
 40
0.1
 41
0.1
  0
VERTEX
  8
0
 10
372.164
 20
194.374
 30
0.0
 40
0.1
 41
0.1
  0
VERTEX
  8
0
 10
371.883
 20
194.176
 30
0.0
 40
0.1
 41
0.1
  0
VERTEX
  8
0
 10
371.594
 20
193.993
 30
0.0
 40
0.1
 41
0.1
  0
VERTEX
  8
0
 10
371.296
 20
193.825
 30
0.0
 40
0.1
 41
0.1
  0
VERTEX
  8
0
 10
370.99
 20
193.671
 30
0.0
 40
0.1
 41
0.1
  0
VERTEX
  8
0
 10
370.679
 20
193.533
 30
0.0
 40
0.1
 41
0.1
  0
VERTEX
  8
0
 10
370.36
 20
193.41
 30
0.0
 40
0.1
 41
0.1
  0
VERTEX
  8
0
 10
370.036
 20
193.303
 30
0.0
 40
0.1
 41
0.1
  0
VERTEX
  8
0
 10
369.706
 20
193.211
 30
0.0
 40
0.1
 41
0.1
  0
VERTEX
  8
0
 10
369.372
 20
193.136
 30
0.0
 40
0.1
 41
0.1
  0
VERTEX
  8
0
 10
369.033
 20
193.076
 30
0.0
 40
0.1
 41
0.1
  0
VERTEX
  8
0
 10
368.692
 20
193.035
 30
0.0
 40
0.1
 41
0.1
  0
VERTEX
  8
0
 10
368.347
 20
193.008
 30
0.0
 40
0.1
 41
0.1
  0
VERTEX
  8
0
 10
368.086
 20
193
 30
0.0
 40
0.1
 41
0.1
  0
VERTEX
  8
0
 10
368
 20
193
 30
0.0
 40
0.1
 41
0.1
  0
VERTEX
  8
0
 10
367.914
 20
193
 30
0.0
 40
0.1
 41
0.1
  0
VERTEX
  8
0
 10
367.653
 20
193.008
 30
0.0
 40
0.1
 41
0.1
  0
VERTEX
  8
0
 10
367.308
 20
193.035
 30
0.0
 40
0.1
 41
0.1
  0
VERTEX
  8
0
 10
366.967
 20
193.076
 30
0.0
 40
0.1
 41
0.1
  0
VERTEX
  8
0
 10
366.628
 20
193.136
 30
0.0
 40
0.1
 41
0.1
  0
VERTEX
  8
0
 10
366.293
 20
193.211
 30
0.0
 40
0.1
 41
0.1
  0
VERTEX
  8
0
 10
365.964
 20
193.303
 30
0.0
 40
0.1
 41
0.1
  0
VERTEX
  8
0
 10
365.64
 20
193.41
 30
0.0
 40
0.1
 41
0.1
  0
VERTEX
  8
0
 10
365.321
 20
193.533
 30
0.0
 40
0.1
 41
0.1
  0
VERTEX
  8
0
 10
365.008
 20
193.671
 30
0.0
 40
0.1
 41
0.1
  0
VERTEX
  8
0
 10
364.704
 20
193.825
 30
0.0
 40
0.1
 41
0.1
  0
VERTEX
  8
0
 10
364.406
 20
193.993
 30
0.0
 40
0.1
 41
0.1
  0
VERTEX
  8
0
 10
364.117
 20
194.176
 30
0.0
 40
0.1
 41
0.1
  0
VERTEX
  8
0
 10
363.835
 20
194.374
 30
0.0
 40
0.1
 41
0.1
  0
VERTEX
  8
0
 10
363.564
 20
194.585
 30
0.0
 40
0.1
 41
0.1
  0
VERTEX
  8
0
 10
363.301
 20
194.811
 30
0.0
 40
0.1
 41
0.1
  0
VERTEX
  8
0
 10
363.111
 20
194.989
 30
0.0
 40
0.1
 41
0.1
  0
VERTEX
  8
0
 10
363.05
 20
195.05
 30
0.0
 40
0.1
 41
0.1
  0
VERTEX
  8
0
 10
362.989
 20
195.111
 30
0.0
 40
0.1
 41
0.1
  0
VERTEX
  8
0
 10
362.811
 20
195.301
 30
0.0
 40
0.1
 41
0.1
  0
VERTEX
  8
0
 10
362.585
 20
195.564
 30
0.0
 40
0.1
 41
0.1
  0
VERTEX
  8
0
 10
362.374
 20
195.836
 30
0.0
 40
0.1
 41
0.1
  0
VERTEX
  8
0
 10
362.176
 20
196.117
 30
0.0
 40
0.1
 41
0.1
  0
VERTEX
  8
0
 10
361.993
 20
196.406
 30
0.0
 40
0.1
 41
0.1
  0
VERTEX
  8
0
 10
361.825
 20
196.704
 30
0.0
 40
0.1
 41
0.1
  0
VERTEX
  8
0
 10
361.671
 20
197.01
 30
0.0
 40
0.1
 41
0.1
  0
VERTEX
  8
0
 10
361.533
 20
197.321
 30
0.0
 40
0.1
 41
0.1
  0
VERTEX
  8
0
 10
361.41
 20
197.64
 30
0.0
 40
0.1
 41
0.1
  0
VERTEX
  8
0
 10
361.303
 20
197.964
 30
0.0
 40
0.1
 41
0.1
  0
VERTEX
  8
0
 10
361.211
 20
198.294
 30
0.0
 40
0.1
 41
0.1
  0
VERTEX
  8
0
 10
361.136
 20
198.628
 30
0.0
 40
0.1
 41
0.1
  0
VERTEX
  8
0
 10
361.076
 20
198.967
 30
0.0
 40
0.1
 41
0.1
  0
VERTEX
  8
0
 10
361.035
 20
199.308
 30
0.0
 40
0.1
 41
0.1
  0
VERTEX
  8
0
 10
361.008
 20
199.653
 30
0.0
 40
0.1
 41
0.1
  0
VERTEX
  8
0
 10
361
 20
199.914
 30
0.0
 40
0.1
 41
0.1
  0
VERTEX
  8
0
 10
361
 20
200
 30
0.0
 40
0.1
 41
0.1
  0
VERTEX
  8
0
 10
361
 20
200.087
 30
0.0
 40
0.1
 41
0.1
  0
VERTEX
  8
0
 10
361.008
 20
200.347
 30
0.0
 40
0.1
 41
0.1
  0
VERTEX
  8
0
 10
361.035
 20
200.692
 30
0.0
 40
0.1
 41
0.1
  0
VERTEX
  8
0
 10
361.076
 20
201.033
 30
0.0
 40
0.1
 41
0.1
  0
VERTEX
  8
0
 10
361.136
 20
201.372
 30
0.0
 40
0.1
 41
0.1
  0
VERTEX
  8
0
 10
361.211
 20
201.707
 30
0.0
 40
0.1
 41
0.1
  0
VERTEX
  8
0
 10
361.303
 20
202.036
 30
0.0
 40
0.1
 41
0.1
  0
VERTEX
  8
0
 10
361.41
 20
202.36
 30
0.0
 40
0.1
 41
0.1
  0
VERTEX
  8
0
 10
361.533
 20
202.679
 30
0.0
 40
0.1
 41
0.1
  0
VERTEX
  8
0
 10
361.671
 20
202.992
 30
0.0
 40
0.1
 41
0.1
  0
VERTEX
  8
0
 10
361.825
 20
203.296
 30
0.0
 40
0.1
 41
0.1
  0
VERTEX
  8
0
 10
361.993
 20
203.594
 30
0.0
 40
0.1
 41
0.1
  0
VERTEX
  8
0
 10
362.176
 20
203.883
 30
0.0
 40
0.1
 41
0.1
  0
VERTEX
  8
0
 10
362.374
 20
204.165
 30
0.0
 40
0.1
 41
0.1
  0
VERTEX
  8
0
 10
362.585
 20
204.436
 30
0.0
 40
0.1
 41
0.1
  0
VERTEX
  8
0
 10
362.811
 20
204.699
 30
0.0
 40
0.1
 41
0.1
  0
VERTEX
  8
0
 10
362.989
 20
204.889
 30
0.0
 40
0.1
 41
0.1
  0
VERTEX
  8
0
 10
363.05
 20
204.95
 30
0.0
 40
0.1
 41
0.1
  0
VERTEX
  8
0
 10
363.111
 20
205.011
 30
0.0
 40
0.1
 41
0.1
  0
VERTEX
  8
0
 10
363.301
 20
205.189
 30
0.0
 40
0.1
 41
0.1
  0
VERTEX
  8
0
 10
363.564
 20
205.415
 30
0.0
 40
0.1
 41
0.1
  0
VERTEX
  8
0
 10
363.835
 20
205.626
 30
0.0
 40
0.1
 41
0.1
  0
VERTEX
  8
0
 10
364.117
 20
205.824
 30
0.0
 40
0.1
 41
0.1
  0
VERTEX
  8
0
 10
364.406
 20
206.007
 30
0.0
 40
0.1
 41
0.1
  0
VERTEX
  8
0
 10
364.704
 20
206.175
 30
0.0
 40
0.1
 41
0.1
  0
VERTEX
  8
0
 10
365.008
 20
206.329
 30
0.0
 40
0.1
 41
0.1
  0
VERTEX
  8
0
 10
365.321
 20
206.467
 30
0.0
 40
0.1
 41
0.1
  0
VERTEX
  8
0
 10
365.64
 20
206.59
 30
0.0
 40
0.1
 41
0.1
  0
VERTEX
  8
0
 10
365.964
 20
206.697
 30
0.0
 40
0.1
 41
0.1
  0
VERTEX
  8
0
 10
366.293
 20
206.789
 30
0.0
 40
0.1
 41
0.1
  0
VERTEX
  8
0
 10
366.628
 20
206.864
 30
0.0
 40
0.1
 41
0.1
  0
VERTEX
  8
0
 10
366.967
 20
206.924
 30
0.0
 40
0.1
 41
0.1
  0
VERTEX
  8
0
 10
367.308
 20
206.965
 30
0.0
 40
0.1
 41
0.1
  0
VERTEX
  8
0
 10
367.653
 20
206.992
 30
0.0
 40
0.1
 41
0.1
  0
VERTEX
  8
0
 10
367.914
 20
207
 30
0.0
 40
0.1
 41
0.1
  0
VERTEX
  8
0
 10
368
 20
207
 30
0.0
 40
0.1
 41
0.1
  0
VERTEX
  8
0
 10
368.086
 20
207
 30
0.0
 40
0.1
 41
0.1
  0
VERTEX
  8
0
 10
368.347
 20
206.992
 30
0.0
 40
0.1
 41
0.1
  0
VERTEX
  8
0
 10
368.692
 20
206.965
 30
0.0
 40
0.1
 41
0.1
  0
VERTEX
  8
0
 10
369.033
 20
206.924
 30
0.0
 40
0.1
 41
0.1
  0
VERTEX
  8
0
 10
369.372
 20
206.864
 30
0.0
 40
0.1
 41
0.1
  0
VERTEX
  8
0
 10
369.706
 20
206.789
 30
0.0
 40
0.1
 41
0.1
  0
VERTEX
  8
0
 10
370.036
 20
206.697
 30
0.0
 40
0.1
 41
0.1
  0
VERTEX
  8
0
 10
370.36
 20
206.59
 30
0.0
 40
0.1
 41
0.1
  0
VERTEX
  8
0
 10
370.679
 20
206.467
 30
0.0
 40
0.1
 41
0.1
  0
VERTEX
  8
0
 10
370.99
 20
206.329
 30
0.0
 40
0.1
 41
0.1
  0
VERTEX
  8
0
 10
371.296
 20
206.175
 30
0.0
 40
0.1
 41
0.1
  0
VERTEX
  8
0
 10
371.594
 20
206.007
 30
0.0
 40
0.1
 41
0.1
  0
VERTEX
  8
0
 10
371.883
 20
205.824
 30
0.0
 40
0.1
 41
0.1
  0
VERTEX
  8
0
 10
372.164
 20
205.626
 30
0.0
 40
0.1
 41
0.1
  0
VERTEX
  8
0
 10
372.436
 20
205.415
 30
0.0
 40
0.1
 41
0.1
  0
VERTEX
  8
0
 10
372.699
 20
205.189
 30
0.0
 40
0.1
 41
0.1
  0
VERTEX
  8
0
 10
372.889
 20
205.011
 30
0.0
 40
0.1
 41
0.1
  0
VERTEX
  8
0
 10
372.95
 20
204.95
 30
0.0
 40
0.1
 41
0.1
  0
VERTEX
  8
0
 10
373.011
 20
204.889
 30
0.0
 40
0.1
 41
0.1
  0
VERTEX
  8
0
 10
373.189
 20
204.699
 30
0.0
 40
0.1
 41
0.1
  0
VERTEX
  8
0
 10
373.415
 20
204.436
 30
0.0
 40
0.1
 41
0.1
  0
VERTEX
  8
0
 10
373.626
 20
204.165
 30
0.0
 40
0.1
 41
0.1
  0
VERTEX
  8
0
 10
373.824
 20
203.883
 30
0.0
 40
0.1
 41
0.1
  0
VERTEX
  8
0
 10
374.007
 20
203.594
 30
0.0
 40
0.1
 41
0.1
  0
VERTEX
  8
0
 10
374.175
 20
203.296
 30
0.0
 40
0.1
 41
0.1
  0
VERTEX
  8
0
 10
374.329
 20
202.992
 30
0.0
 40
0.1
 41
0.1
  0
VERTEX
  8
0
 10
374.467
 20
202.679
 30
0.0
 40
0.1
 41
0.1
  0
VERTEX
  8
0
 10
374.59
 20
202.36
 30
0.0
 40
0.1
 41
0.1
  0
VERTEX
  8
0
 10
374.697
 20
202.036
 30
0.0
 40
0.1
 41
0.1
  0
VERTEX
  8
0
 10
374.789
 20
201.707
 30
0.0
 40
0.1
 41
0.1
  0
VERTEX
  8
0
 10
374.864
 20
201.372
 30
0.0
 40
0.1
 41
0.1
  0
VERTEX
  8
0
 10
374.924
 20
201.033
 30
0.0
 40
0.1
 41
0.1
  0
VERTEX
  8
0
 10
374.965
 20
200.692
 30
0.0
 40
0.1
 41
0.1
  0
VERTEX
  8
0
 10
374.992
 20
200.347
 30
0.0
 40
0.1
 41
0.1
  0
VERTEX
  8
0
 10
375
 20
200.087
 30
0.0
 40
0.1
 41
0.1
  0
VERTEX
  8
0
 10
375
 20
200
 30
0.0
 40
0.1
 41
0.1
  0
SEQEND
 8
0
  0
POLYLINE
  8
0
 62
     0
 66
     1
 10
0
 20
0
 30
0.0
 70
     1
 40
7.2
 41
7.2
  0
VERTEX
  8
0
 10
21
 20
220
 30
0.0
 40
0.1
 41
0.1
  0
VERTEX
  8
0
 10
387
 20
220
 30
0.0
 40
0.1
 41
0.1
  0
VERTEX
  8
0
 10
387.05
 20
220
 30
0.0
 40
0.1
 41
0.1
  0
VERTEX
  8
0
 10
387.201
 20
219.979
 30
0.0
 40
0.1
 41
0.1
  0
VERTEX
  8
0
 10
387.389
 20
219.921
 30
0.0
 40
0.1
 41
0.1
  0
VERTEX
  8
0
 10
387.56
 20
219.829
 30
0.0
 40
0.1
 41
0.1
  0
VERTEX
  8
0
 10
387.707
 20
219.707
 30
0.0
 40
0.1
 41
0.1
  0
VERTEX
  8
0
 10
387.829
 20
219.56
 30
0.0
 40
0.1
 41
0.1
  0
VERTEX
  8
0
 10
387.921
 20
219.389
 30
0.0
 40
0.1
 41
0.1
  0
VERTEX
  8
0
 10
387.979
 20
219.201
 30
0.0
 40
0.1
 41
0.1
  0
VERTEX
  8
0
 10
388
 20
219.05
 30
0.0
 40
0.1
 41
0.1
  0
VERTEX
  8
0
 10
388
 20
219
 30
0.0
 40
0.1
 41
0.1
  0
VERTEX
  8
0
 10
388
 20
21
 30
0.0
 40
0.1
 41
0.1
  0
VERTEX
  8
0
 10
388
 20
20.9497
 30
0.0
 40
0.1
 41
0.1
  0
VERTEX
  8
0
 10
387.979
 20
20.7985
 30
0.0
 40
0.1
 41
0.1
  0
VERTEX
  8
0
 10
387.921
 20
20.6108
 30
0.0
 40
0.1
 41
0.1
  0
VERTEX
  8
0
 10
387.829
 20
20.441
 30
0.0
 40
0.1
 41
0.1
  0
VERTEX
  8
0
 10
387.707
 20
20.2929
 30
0.0
 40
0.1
 41
0.1
  0
VERTEX
  8
0
 10
387.56
 20
20.1708
 30
0.0
 40
0.1
 41
0.1
  0
VERTEX
  8
0
 10
387.389
 20
20.0786
 30
0.0
 40
0.1
 41
0.1
  0
VERTEX
  8
0
 10
387.201
 20
20.0203
 30
0.0
 40
0.1
 41
0.1
  0
VERTEX
  8
0
 10
387.05
 20
20
 30
0.0
 40
0.1
 41
0.1
  0
VERTEX
  8
0
 10
387
 20
20
 30
0.0
 40
0.1
 41
0.1
  0
VERTEX
  8
0
 10
21
 20
20
 30
0.0
 40
0.1
 41
0.1
  0
VERTEX
  8
0
 10
20.9496
 20
20
 30
0.0
 40
0.1
 41
0.1
  0
VERTEX
  8
0
 10
20.7985
 20
20.0203
 30
0.0
 40
0.1
 41
0.1
  0
VERTEX
  8
0
 10
20.6107
 20
20.0786
 30
0.0
 40
0.1
 41
0.1
  0
VERTEX
  8
0
 10
20.4408
 20
20.1708
 30
0.0
 40
0.1
 41
0.1
  0
VERTEX
  8
0
 10
20.2929
 20
20.2929
 30
0.0
 40
0.1
 41
0.1
  0
VERTEX
  8
0
 10
20.1707
 20
20.441
 30
0.0
 40
0.1
 41
0.1
  0
VERTEX
  8
0
 10
20.0786
 20
20.6108
 30
0.0
 40
0.1
 41
0.1
  0
VERTEX
  8
0
 10
20.0203
 20
20.7985
 30
0.0
 40
0.1
 41
0.1
  0
VERTEX
  8
0
 10
20
 20
20.9497
 30
0.0
 40
0.1
 41
0.1
  0
VERTEX
  8
0
 10
20
 20
21
 30
0.0
 40
0.1
 41
0.1
  0
VERTEX
  8
0
 10
20
 20
219
 30
0.0
 40
0.1
 41
0.1
  0
VERTEX
  8
0
 10
20
 20
219.05
 30
0.0
 40
0.1
 41
0.1
  0
VERTEX
  8
0
 10
20.0203
 20
219.201
 30
0.0
 40
0.1
 41
0.1
  0
VERTEX
  8
0
 10
20.0786
 20
219.389
 30
0.0
 40
0.1
 41
0.1
  0
VERTEX
  8
0
 10
20.1707
 20
219.56
 30
0.0
 40
0.1
 41
0.1
  0
VERTEX
  8
0
 10
20.2929
 20
219.707
 30
0.0
 40
0.1
 41
0.1
  0
VERTEX
  8
0
 10
20.4408
 20
219.829
 30
0.0
 40
0.1
 41
0.1
  0
VERTEX
  8
0
 10
20.6107
 20
219.921
 30
0.0
 40
0.1
 41
0.1
  0
VERTEX
  8
0
 10
20.7985
 20
219.979
 30
0.0
 40
0.1
 41
0.1
  0
VERTEX
  8
0
 10
20.9496
 20
220
 30
0.0
 40
0.1
 41
0.1
  0
VERTEX
  8
0
 10
21
 20
220
 30
0.0
 40
0.1
 41
0.1
  0
SEQEND
 8
0
  0
ENDSEC
  0
EOF
